<svg xmlns="http://www.w3.org/2000/svg" fill="none" viewBox="0 0 1101 1024" height="1024" width="1101">
<rect fill="#E1D0C4" transform="translate(0.196777)" height="1024" width="1100.6"></rect>
<path fill="#E1D0C4" d="M18 0H1083.7V1024H18V0ZM252.593 220.415C243.326 256.232 259.636 297.423 292.858 314.799C283.684 334.538 274.973 354.601 268.347 375.359C254.817 420.72 252.593 472.847 279.19 514.085C274.788 517.468 270.988 521.36 267.745 525.761C272.61 532.897 278.958 519.182 281.182 516.587C282.757 525.9 274.417 532.202 270.757 539.894C258.431 562.829 259.868 589.889 261.49 615.049C259.405 613.705 255.234 611.064 253.149 609.72C257.134 585.95 247.682 554.118 269.228 537.252C267.513 534.982 265.799 532.712 264.038 530.441C262.324 533.314 258.849 539.106 257.134 541.979C245.226 539.616 234.523 533.268 222.707 530.441C222.707 516.309 226.229 501.899 222.8 487.999C221.595 487.582 219.186 486.748 218.028 486.284C218.306 501.482 216.73 516.587 215.062 531.692C209.363 530.534 203.617 529.329 197.872 528.125C201.486 523.398 205.61 519.136 210.104 515.243C212.838 503.196 210.429 491.149 210.104 479.149L212.236 476.971C211.494 467.102 205.98 446.205 191.987 446.297C175.585 456.908 173.778 479.844 168.635 497.219L174.334 492.447L176.419 481.048C178.18 482.948 181.655 486.655 183.415 488.555C182.767 498.98 182.952 510.332 175.029 518.348C174.426 510.147 173.685 501.899 172.805 493.744C170.442 496.571 165.762 502.27 163.399 505.096C158.58 493.188 149.962 482.531 138.61 476.369C131.103 471.596 123.458 479.797 121.883 486.84C114.886 507.089 127.489 526.503 137.359 543.276C125.96 548.28 116.23 560.142 125.775 571.957C125.497 577.564 126.238 583.124 126.794 588.684C133.559 594.986 142.919 593.874 151.398 594.8C157.468 601.751 163.584 608.886 167.198 617.458C161.545 612.269 156.819 606.106 152.417 599.805C150.332 602.121 148.294 604.438 146.301 606.755C163.538 617.782 169.932 638.957 177.114 657.074C165.437 658.094 153.761 659.345 142.038 659.855C140.37 674.913 129.343 698.961 149.545 705.587C149.545 714.53 149.637 723.519 149.915 732.554C140.695 749.095 120.771 761.837 123.597 782.966C123.921 823.324 122.995 863.728 123.829 904.085C189.068 905.614 254.354 904.502 319.593 904.734C319.408 910.758 319.223 916.735 319.084 922.758C328.165 925.307 337.618 926.187 347.024 926.002C482.924 926.187 618.824 926.419 754.724 926.419C761.906 926.141 769.32 926.651 776.316 924.658C784.054 921.461 779.977 912.101 781.089 905.893C841.973 905.29 902.857 906.588 963.694 905.198C972.081 905.939 969.625 894.819 970.552 889.861C969.44 847.696 972.683 805.207 969.532 763.181C956.095 742.053 943.492 717.819 920.788 705.355C917.823 699.424 920 688.86 912.401 686.682C879.874 682.559 846.745 686.219 814.264 681.678C836.042 650.263 851.379 612.917 848.645 574.042C846.884 563.107 850.405 548.095 837.107 543.137C850.127 599.758 829.694 665.878 782.432 700.907C798.047 682.79 813.245 663.886 821.91 641.367C839.656 602.26 840.443 555.508 819.5 517.468C832.752 523.954 830.806 543.044 843.872 550.597C843.502 535.075 834.605 523.352 827.284 510.888C837.756 494.949 846.56 477.388 848.506 458.159C853.881 408.998 836.968 361.319 818.666 316.606C836.505 306.783 851.425 291.214 858.746 272.032C872.878 236.215 860.738 193.216 833.169 167.222C793.553 130.247 720.575 126.54 685.175 171.161C642.64 154.249 596.305 149.152 550.804 149.152C509.242 150.357 466.985 155.175 428.063 170.605C420.464 162.079 412.449 153.507 401.745 148.967C344.429 123.065 267.559 158.697 252.593 220.415Z"></path>
<path fill="#E1D0C4" d="M437.702 199.981C446.181 183.857 466.893 181.077 483.202 178.991C472.036 191.085 453.409 195.394 437.702 199.981Z"></path>
<path fill="#E1D0C4" d="M291.932 333.843C307.686 290.195 327.471 243.999 367.041 216.893C362.778 227.087 358.469 237.281 353.14 247.011C332.012 285.098 321.355 327.68 308.149 368.872C298.234 400.101 289.476 433.74 297.956 466.36C302.821 483.319 311.207 502.177 329.371 508.2C327.425 496.57 324.784 485.126 322.467 473.588C327.378 475.349 332.29 477.017 337.248 478.593C346.885 481.465 356.755 483.643 366.809 484.616C356.477 485.45 343.688 486.191 338.36 496.802C336.738 515.614 338.221 534.658 336.414 553.516C304.118 537.669 279.792 506.718 270.108 472.337C260.563 425.261 274.093 377.258 291.932 333.843Z"></path>
<path fill="#E1D0C4" d="M763.343 233.898C792.163 264.062 805.368 304.559 819.639 342.785C833.54 379.39 843.965 418.774 839.146 458.205C833.54 497.636 804.303 529.978 770.2 548.465C768.764 538.55 765.474 527.244 771.359 518.116C780.579 505.467 792.348 494.532 799.437 480.4C814.589 454.684 809.075 423.176 803.747 395.421C792.117 347.789 780.301 300.157 764.316 253.776C761.767 247.428 762.555 240.524 763.343 233.898Z"></path>
<path fill="#E1D0C4" d="M187.909 467.287C179.338 459.92 198.659 446.019 199.262 459.688C200.744 477.388 211.772 498.702 199.91 514.317C196.991 498.331 199.447 480.446 187.909 467.287Z"></path>
<path fill="#E1D0C4" d="M187.909 485.404C179.708 487.952 176.001 471.225 183.878 469.187C187.816 472.986 189.855 480.168 187.909 485.404Z"></path>
<path fill="#E1D0C4" d="M129.575 489.991C124.153 484.06 138.239 476.647 139.583 484.616C137.081 485.96 132.077 488.647 129.575 489.991Z"></path>
<path fill="#E1D0C4" d="M751.943 496.941L754.121 493.976C759.866 510.888 756.206 528.959 756.993 546.473C756.02 608.84 759.078 671.346 754.63 733.573C742.537 736.77 729.934 736.307 717.562 736.122C644.956 735.89 572.395 734.685 499.789 735.797C450.952 736.4 402.022 734.129 353.185 736.307L353.556 735.705C354.297 734.454 355.826 731.951 356.614 730.7C357.124 727.04 357.448 723.333 357.958 719.673C359.719 720.785 363.286 722.962 365.047 724.028C451.554 727.179 538.2 724.353 624.8 725.372C667.66 724.909 710.751 727.735 753.472 723.194C750.229 722.082 743.742 719.904 740.498 718.792C740.359 656.843 740.452 594.939 740.73 532.99C740.776 522.564 739.618 512.185 738.135 501.899C744.112 502.826 748.699 501.158 751.943 496.941Z"></path>
<path fill="#E1D0C4" d="M208.853 658.001C214.228 633.027 223.588 604.114 247.635 591.325C248.701 620.748 256.81 650.819 277.197 672.875C279.05 675.238 282.664 679.917 284.518 682.234C268.764 692.938 255.929 707.023 242.121 719.951C244.207 725.094 246.523 730.144 248.979 735.149C248.516 735.149 247.543 735.195 247.079 735.195C243.604 734.963 236.608 734.546 233.086 734.314L236.886 730.932C236.283 729.959 235.171 727.967 234.615 726.994C230.63 718.19 225.256 710.128 219.417 702.436C230.121 692.567 237.395 678.991 233.132 664.164C225.07 661.986 216.962 659.993 208.853 658.001Z"></path>
<path fill="#E1D0C4" d="M257.783 622.045C258.663 620.423 260.47 617.273 261.351 615.651L261.721 614.91C267.884 642.572 282.433 667.778 304.118 686.08C294.248 680.288 285.213 673.06 277.521 664.534C269.644 651.004 262.092 637.197 257.783 622.045Z"></path>
<path fill="#E1D0C4" d="M145.235 666.897C154.965 666.388 164.742 666.341 174.519 666.712C192.311 669.121 210.289 668.009 228.174 667.129C208.111 680.937 181.978 673.431 159.367 673.801C160.062 676.072 161.406 680.612 162.101 682.883C184.527 681.863 207.092 682.002 229.147 677.091C227.248 681.493 225.302 685.848 223.309 690.204C200.837 685.246 177.762 687.516 154.965 687.563C152.649 690.296 147.969 695.857 145.652 698.637C145.003 692.15 144.633 685.663 144.216 679.176C149.729 677.184 155.243 675.191 160.618 673.013C156.772 671.484 149.081 668.426 145.235 666.897Z"></path>
<path fill="#E1D0C4" d="M842.9 744.323C869.357 736.631 895.536 725.743 923.523 725.418C924.403 726.206 926.21 727.828 927.09 728.615C905.452 734.268 878.439 735.102 864.399 755.165C870.886 754.238 877.419 753.173 883.906 752.107C883.397 753.636 882.377 756.694 881.868 758.27C872.647 757.806 863.426 757.482 854.252 757.25C850.452 752.941 846.653 748.632 842.9 744.323Z"></path>
<path fill="#E1D0C4" d="M131.891 779.028L132.679 779.398C136.895 781.483 141.112 783.568 145.328 785.7C145.56 822.721 144.355 859.789 146.44 896.811C141.343 896.857 136.246 896.903 131.15 896.996C131.798 857.658 131.011 818.32 131.891 779.028Z"></path>
<path fill="#2D0D14" d="M252.594 220.415C267.56 158.697 344.43 123.065 401.746 148.966C412.449 153.507 420.465 162.079 428.064 170.605C466.985 155.175 509.243 150.356 550.805 149.152C596.306 149.152 642.641 154.248 685.176 171.161C720.576 126.54 793.553 130.247 833.169 167.222C860.739 193.216 872.878 236.215 858.746 272.032C851.425 291.214 836.505 306.783 818.667 316.606C836.969 361.319 853.881 408.997 848.506 458.159C846.56 477.388 837.757 494.949 827.285 510.888C834.606 523.352 843.502 535.074 843.873 550.597C830.806 543.044 832.752 523.954 819.501 517.467C840.444 555.508 839.656 602.26 821.91 641.367C813.245 663.885 798.048 682.79 782.433 700.907C829.694 665.878 850.128 599.758 837.108 543.137C850.406 548.095 846.884 563.107 848.645 574.042C851.379 612.917 836.042 650.263 814.265 681.678C846.745 686.219 879.875 682.558 912.402 686.682C920.001 688.86 917.823 699.424 920.789 705.355C943.493 717.819 956.096 742.052 969.533 763.181C972.684 805.207 969.44 847.696 970.552 889.86C969.625 894.818 972.081 905.939 963.695 905.197C902.857 906.587 841.973 905.29 781.089 905.892C779.977 912.101 784.054 921.461 776.317 924.658C769.32 926.65 761.906 926.141 754.724 926.419C618.824 926.419 482.924 926.187 347.024 926.002C337.618 926.187 328.166 925.306 319.084 922.758C319.223 916.735 319.409 910.757 319.594 904.734C254.355 904.502 189.069 905.614 123.829 904.085C122.995 863.727 123.922 823.324 123.598 782.966C120.771 761.837 140.695 749.095 149.916 732.554C149.638 723.518 149.545 714.529 149.545 705.587C129.343 698.961 140.371 674.913 142.039 659.854C153.206 660.179 164.326 661.893 174.52 666.712C164.743 666.341 154.966 666.387 145.236 666.897C149.082 668.426 156.773 671.484 160.619 673.013C155.244 675.191 149.731 677.183 144.217 679.176C144.634 685.663 145.004 692.15 145.653 698.636C166.318 701.509 187.447 702.39 208.205 699.702C214.738 699.609 219.372 694.744 223.31 690.204C225.303 685.848 227.249 681.493 229.148 677.091C207.093 682.002 184.528 681.863 162.102 682.883C161.407 680.612 160.063 676.071 159.368 673.801C181.98 673.43 208.112 680.937 228.175 667.129L233.133 664.163C237.396 678.99 230.121 692.567 219.418 702.436C225.256 710.128 230.631 718.19 234.616 726.993C209.688 736.029 183.231 737.511 157.051 734.546C147.97 747.056 138.842 759.52 130.131 772.263C246.802 773.792 363.473 770.316 480.191 771.66C483.063 762.625 485.89 753.543 488.763 744.508C450.768 745.388 412.727 743.952 374.732 744.276C365.466 743.906 355.735 744.786 346.932 741.265C339.611 734.5 337.062 724.213 331.409 716.197C307.64 711.61 283.082 713.093 259.034 713.788C247.404 713.093 250.879 728.059 248.98 735.148C246.524 730.144 244.207 725.094 242.122 719.951C255.93 707.023 268.765 692.937 284.519 682.234C282.665 679.917 279.051 675.237 277.198 672.874L277.522 664.534C285.214 673.06 294.249 680.288 304.118 686.08C282.433 667.778 267.884 642.571 261.722 614.909L261.351 615.651L261.49 615.048C259.868 589.889 258.432 562.829 270.757 539.893C274.418 532.202 282.758 525.9 281.182 516.587C278.958 519.182 272.611 532.897 267.745 525.761C270.989 521.359 274.788 517.467 279.19 514.085C252.594 472.847 254.818 420.72 268.348 375.358C274.974 354.6 283.685 334.537 292.859 314.799C259.637 297.423 243.327 256.231 252.594 220.415ZM694.397 175.192C703.663 167.5 712.282 158.558 723.726 154.202C772.193 135.9 832.382 164.998 846.884 214.993C856.846 244.787 847.95 277.175 828.86 301.223C856.383 276.341 863.797 232.554 846.375 199.842C833.586 173.107 807.037 154.341 778.031 149.291C748.423 142.711 713.069 149.383 694.397 175.192ZM259.915 240.941C259.081 263.738 268.996 286.303 286.14 301.269C268.07 281.299 261.397 253.868 265.985 227.55C276.41 164.581 359.952 128.533 411.986 166.249C394.888 149.43 369.404 147.623 346.793 149.986C301.245 153.414 258.015 193.679 259.915 240.941ZM367.041 216.893C327.471 243.999 307.686 290.195 291.932 333.842C274.093 377.258 260.563 425.261 270.108 472.337C279.792 506.718 304.118 537.669 336.414 553.516C338.221 534.657 336.738 515.614 338.36 496.802C343.688 486.191 356.477 485.45 366.809 484.616C426.257 485.218 485.797 484.662 545.291 485.404C545.986 477.573 546.681 469.789 547.33 461.958C536.07 461.17 522.216 463.487 513.783 454.035C509.335 446.668 511.003 435.547 519.529 431.933C537.553 423.13 559.238 422.666 578.42 427.624C588.614 430.219 600.429 442.405 591.858 452.691C583.888 464.275 568.597 461.634 556.55 462.607C556.504 470.252 556.365 477.944 556.226 485.635C608.816 485.682 661.452 484.894 714.089 484.94C725.673 486.608 737.488 486.099 749.072 488.091L751.018 494.068C737.025 491.566 722.753 492.724 708.575 492.493C615.766 493.049 522.911 491.659 430.103 492.91C402.116 493.558 374.037 491.89 346.144 494.902C344.291 564.636 346.19 634.416 345.912 704.15C346.561 714.946 343.595 728.105 353.557 735.704L353.187 736.307C402.024 734.129 450.953 736.399 499.79 735.797C572.397 734.685 644.957 735.89 717.564 736.121C729.935 736.307 742.538 736.77 754.632 733.573C759.08 671.345 756.022 608.84 756.995 546.473C756.207 528.958 759.868 510.888 754.122 493.975C755.095 492.863 757.041 490.686 758.014 489.574C772.795 505.884 763.343 530.163 766.169 550.041C767.235 549.809 769.274 549.346 770.339 549.114L770.2 548.465C804.303 529.978 833.54 497.636 839.147 458.205C843.965 418.774 833.54 379.389 819.64 342.785C805.368 304.559 792.163 264.062 763.343 233.898C743.697 211.796 717.61 196.83 691.06 184.505C634.81 158.187 570.636 154.897 509.66 160.643C458.413 166.435 406.75 183.439 367.041 216.893ZM523.421 443.656C535.746 445.417 548.117 442.59 560.443 443.749C567.671 443.749 577.216 449.865 581.247 440.505C563.408 432.721 538.804 429.477 523.421 443.656ZM263.436 708.089C275.576 706.282 287.855 705.309 300.18 704.984C295.407 700.444 290.31 696.134 285.306 691.825C277.151 695.903 270.386 702.251 263.436 708.089ZM800.04 700.953C826.821 702.529 853.603 700.073 880.385 701.509C888.122 702.76 894.563 700.305 899.706 694.142C876.353 689.787 852.445 691.733 828.814 691.362C818.898 692.752 804.349 688.813 800.04 700.953ZM153.437 704.984C153.808 713.093 154.179 721.202 154.503 729.31C178.69 730.005 207.186 736.955 227.99 721.341C223.403 715.966 219.094 710.359 215.109 704.567C194.629 706.884 173.964 707.857 153.437 704.984ZM802.82 709.154C814.079 719.997 826.312 729.727 837.895 740.199C867.364 728.754 898.455 723.935 929.036 716.846C924.264 713.093 918.703 710.081 912.541 710.035C875.983 708.181 839.378 709.711 802.82 709.154ZM764.779 711.749C763.991 720.97 764.918 731.812 757.412 738.716C750.879 745.898 740.407 744.971 731.603 745.342C690.412 744.74 649.174 745.713 607.982 744.045C610.623 752.895 613.218 761.745 615.581 770.687C695.694 771.614 775.807 772.216 855.92 772.541C842.158 746.361 819.918 726.715 795.731 710.406C785.444 708.645 775.019 710.869 764.779 711.749ZM920.603 722.823L923.522 725.418C895.536 725.742 869.357 736.631 842.9 744.323C846.653 748.632 850.452 752.941 854.252 757.25C863.426 757.482 872.647 757.806 881.867 758.269L879.829 764.247C873.249 765.266 866.716 766.61 860.229 768.185C867.318 773.05 876.307 771.938 884.462 772.263C910.688 772.124 936.959 771.29 963.185 771.197C961.007 757.945 951.092 748.215 944.141 737.233C938.349 729.403 932.511 715.966 920.603 722.823ZM499.651 743.998L496.639 743.813C490.477 765.915 482.044 787.414 477.457 809.979C493.581 815.632 510.864 813.362 527.591 813.825C556.411 813.362 585.371 815.586 614.145 812.528C611.55 789.082 605.156 766.285 599.503 743.442C596.723 743.442 591.255 743.396 588.475 743.35C592.553 765.127 597.603 786.719 603.905 807.94C566.42 807.94 528.935 807.894 491.45 807.523C491.913 805.855 492.886 802.473 493.396 800.805C527.684 802.612 562.064 801.268 596.398 801.592C590.977 782.595 589.309 762.069 581.757 743.952C554.419 743.303 526.942 742.933 499.651 743.998ZM131.892 779.027C131.011 818.319 131.799 857.658 131.15 896.996C136.247 896.903 141.344 896.857 146.441 896.811C418.426 896.44 690.412 898.108 962.351 897.83C962.536 858.121 962.305 818.366 963 778.61C847.579 780.695 732.113 777.128 616.647 778.471C619.658 789.684 622.253 800.99 624.802 812.296C619.473 816.559 613.913 821.285 606.592 820.821C575.687 822.721 544.735 821.794 513.83 821.563C498.261 820.636 480.515 823.323 468.097 811.693C471.063 800.666 474.167 789.638 477.503 778.703C362.546 778.471 247.636 780 132.679 779.398L131.892 779.027ZM329 905.753C328.166 908.719 326.498 914.603 325.71 917.569C475.186 918.125 624.709 918.634 774.185 917.8C773.861 914.603 773.212 908.209 772.888 905.012C624.941 906.17 476.901 903.205 329 905.753Z"></path>
<path fill="#2D0D14" d="M446.228 391.159C450.537 387.498 462.352 392.085 458.136 398.757C455.494 404.503 448.591 408.395 442.613 404.874C440.158 399.916 440.945 393.846 446.228 391.159Z"></path>
<path fill="#2D0D14" d="M649.591 391.159C657.607 384.579 666.132 397.877 658.534 403.947C650.286 413.955 638.656 396.394 649.591 391.159Z"></path>
<path fill="#2D0D14" d="M538.016 633.953C520.965 619.867 530.788 596.978 547.283 587.34C545.476 594.198 544.827 601.102 545.337 608.006C555.438 611.017 560.72 599.434 566.79 593.734C569.987 598.183 573.184 602.631 576.381 607.125C567.531 613.288 556.874 614.261 546.495 615.373C544.04 613.38 539.174 609.396 536.719 607.403C536.348 612.037 535.699 621.304 535.329 625.891C545.661 625.149 558.218 620.053 565.817 629.968C556.782 632.702 547.376 633.443 538.016 633.953ZM566.141 603.511C568.365 605.828 568.365 605.828 566.141 603.511Z"></path>
<path fill="#2D0D14" d="M357.959 719.673C389.698 716.661 421.623 719.441 453.501 718.746C549.183 718.051 644.864 719.209 740.499 718.792C743.743 719.904 750.23 722.082 753.473 723.194C710.752 727.735 667.661 724.908 624.801 725.372C538.202 724.352 451.555 727.179 365.048 724.028C363.287 722.962 359.72 720.785 357.959 719.673Z"></path>
<path fill="#2D0D14" d="M233.087 734.314C236.608 734.546 243.605 734.963 247.08 735.195C240.732 743.952 234.338 752.709 227.063 760.772C228.546 751.829 230.4 742.933 233.087 734.314Z"></path>
<path fill="#2D0D14" d="M358.099 840.931C364.864 838.243 372.417 839.216 379.552 838.892C500.023 839.865 620.586 837.456 741.057 839.263C755.143 843.896 751.945 868.037 736.47 866.832C612.756 866.739 488.995 866.276 365.281 866.554C351.288 868.361 344.106 845.981 358.099 840.931ZM360.509 847.557C353.651 857.519 367.876 860.021 374.687 858.955C496.78 857.611 619.057 859.372 741.057 858.816C741.01 855.804 740.871 849.827 740.825 846.815C635.969 843.665 530.836 847.001 425.887 846.12C404.11 846.769 382.147 844.174 360.509 847.557Z"></path>
<path fill="#FDFDFD" d="M694.396 175.192C713.069 149.384 748.423 142.711 778.031 149.291C807.036 154.341 833.586 173.107 846.375 199.842C863.797 232.555 856.383 276.341 828.86 301.223C847.95 277.175 856.846 244.787 846.884 214.994C832.382 164.998 772.193 135.9 723.726 154.202C712.282 158.558 703.663 167.5 694.396 175.192Z"></path>
<path fill="#FDFDFD" d="M259.915 240.941C258.015 193.68 301.246 153.415 346.793 149.986C369.404 147.623 394.888 149.43 411.986 166.249C359.952 128.533 276.41 164.581 265.985 227.55C261.398 253.869 268.07 281.299 286.14 301.269C268.997 286.303 259.081 263.738 259.915 240.941Z"></path>
<path fill="#FDFDFD" d="M367.04 216.893C406.749 183.44 458.412 166.435 509.658 160.643C570.635 154.897 634.809 158.187 691.059 184.505C717.609 196.83 743.696 211.797 763.342 233.898C762.554 240.524 761.766 247.428 764.315 253.776C780.3 300.157 792.115 347.789 803.746 395.421C809.074 423.176 814.588 454.684 799.436 480.4C792.347 494.532 780.578 505.467 771.357 518.116C765.473 527.244 768.763 538.55 770.199 548.465L770.338 549.114C769.272 549.346 767.234 549.809 766.168 550.041C763.342 530.163 772.794 505.884 758.013 489.574C775.574 484.338 791.05 468.538 788.409 449.077C784.239 420.072 763.064 397.507 743.603 377.166C719.092 353.488 688.464 330.182 652.648 331.665C633.882 331.804 615.719 346.492 614.746 365.814C609.834 423.639 655.984 479.658 714.088 484.94C661.451 484.894 608.815 485.682 556.225 485.635C556.364 477.944 556.503 470.252 556.549 462.607C568.596 461.634 583.887 464.275 591.856 452.691C600.428 442.405 588.613 430.219 578.419 427.624C559.237 422.666 537.552 423.13 519.528 431.933C511.002 435.547 509.334 446.668 513.782 454.035C522.215 463.487 536.069 461.171 547.329 461.958C546.68 469.789 545.985 477.573 545.29 485.404C485.796 484.662 426.256 485.218 366.808 484.616C356.753 483.643 346.884 481.465 337.246 478.593C362.916 480.817 388.863 480.214 414.487 477.527C448.126 470.716 470.644 440.598 485.147 411.592C494.043 390.325 498.445 361.319 480.977 343.156C464.899 326.429 438.581 327.912 418.749 336.484C381.079 352.793 350.591 383.374 330.342 418.728C320.473 435.177 318.759 455.054 322.466 473.588C324.782 485.126 327.423 496.57 329.369 508.2C311.206 502.177 302.82 483.319 297.954 466.36C289.475 433.74 298.232 400.101 308.148 368.872C321.354 327.68 332.011 285.098 353.139 247.011C358.468 237.281 362.777 227.087 367.04 216.893ZM516.979 179.64C538.849 175.609 560.951 175.563 583.006 177.694C577.446 170.929 567.67 173.014 559.978 171.995C545.568 172.319 528.934 169.724 516.979 179.64ZM614.19 175.563V180.243C631.797 181.772 648.802 186.776 664.417 194.977C655.381 177.138 631.287 178.111 614.19 175.563ZM437.7 199.981C453.408 195.394 472.034 191.085 483.201 178.991C466.891 181.077 446.18 183.857 437.7 199.981ZM522.864 395.978C538.432 395.839 553.954 396.719 569.477 397.738C573.508 402.742 578.234 407.237 584.767 408.766C583.423 405.661 580.736 399.499 579.392 396.395C580.041 394.865 581.338 391.807 581.987 390.278C565.26 392.873 548.626 389.027 531.945 388.471C526.432 388.054 523.42 390.556 522.864 395.978Z"></path>
<path fill="#FDFDFD" d="M441.64 386.525C449.146 381.289 461.842 384.857 464.807 393.892C467.495 408.21 447.663 421.369 436.45 411.036C428.295 403.715 433.346 391.251 441.64 386.525ZM446.227 391.159C440.945 393.846 440.157 399.916 442.613 404.874C448.59 408.395 455.494 404.503 458.135 398.758C462.351 392.085 450.536 387.498 446.227 391.159Z"></path>
<path fill="#FDFDFD" d="M645.651 387.128C655.567 376.98 675.212 389.074 668.911 402.65C666.826 414.697 649.358 419.191 642.129 409.229C636.06 402.511 639.488 392.456 645.651 387.128ZM649.589 391.159C638.654 396.395 650.284 413.955 658.532 403.947C666.131 397.877 657.605 384.579 649.589 391.159Z"></path>
<path fill="#FDFDFD" d="M523.42 443.656C538.803 429.478 563.407 432.721 581.246 440.505C577.215 449.865 567.67 443.749 560.441 443.749C548.116 442.59 535.745 445.417 523.42 443.656Z"></path>
<path fill="#FDFDFD" d="M430.101 492.91C522.91 491.659 615.765 493.049 708.573 492.493C722.752 492.725 737.023 491.566 751.016 494.068L751.943 496.941C748.699 501.158 744.112 502.826 738.135 501.899C611.873 500.046 485.564 500.463 359.301 503.289C361.016 570.382 358.56 637.521 360.923 704.568C360.182 708.367 358.699 715.92 357.958 719.673C357.448 723.333 357.124 727.04 356.614 730.7C355.826 731.951 354.297 734.453 353.556 735.705C343.594 728.106 346.559 714.947 345.911 704.151C346.189 634.417 344.289 564.636 346.142 494.902C374.036 491.891 402.115 493.559 430.101 492.91Z"></path>
<path fill="#FDFDFD" d="M215.85 601.38C218.723 600.638 224.375 599.109 227.248 598.368C213.765 616.531 205.563 637.289 200.467 659.252C198.845 647.112 203.108 635.529 207.324 624.408C212.375 617.643 215.386 609.813 215.85 601.38Z"></path>
<path fill="#FDFDFD" d="M588.474 743.35C591.254 743.396 596.722 743.442 599.502 743.442C605.155 766.285 611.549 789.082 614.144 812.528C585.37 815.586 556.411 813.362 527.59 813.825C510.863 813.362 493.581 815.632 477.456 809.979C482.043 787.414 490.476 765.915 496.639 743.813L499.65 743.998C502.291 744.184 507.527 744.554 510.122 744.74C504.006 763.274 498.724 782.039 493.395 800.805C492.886 802.473 491.913 805.855 491.449 807.524C528.934 807.894 566.419 807.941 603.904 807.941C597.602 786.719 592.552 765.127 588.474 743.35Z"></path>
<path fill="#8B8989" d="M516.981 179.64C528.935 169.724 545.57 172.319 559.98 171.995C567.671 173.014 577.448 170.929 583.008 177.694C560.953 175.563 538.851 175.609 516.981 179.64Z"></path>
<path fill="#8B8989" d="M614.19 175.563C631.288 178.111 655.382 177.138 664.417 194.977C648.803 186.776 631.798 181.772 614.19 180.242V175.563Z"></path>
<path fill="#8B8989" d="M522.866 395.977C523.422 390.556 526.434 388.054 531.947 388.471C548.628 389.027 565.262 392.873 581.989 390.278C581.34 391.807 580.043 394.865 579.394 396.395C580.738 399.499 583.425 405.661 584.769 408.766C578.236 407.237 573.51 402.742 569.479 397.738C553.956 396.719 538.434 395.838 522.866 395.977Z"></path>
<path fill="#8B8989" d="M129.575 489.991C132.077 488.647 137.081 485.96 139.583 484.616C156.542 493.234 161.499 513.622 169.747 529.283C164.326 534.75 156.773 536.14 149.591 537.808C144.958 524.603 140.927 511.073 135.552 498.146C134.116 497.404 131.289 495.829 129.853 495.041C134.116 510.332 142.271 524.371 144.819 540.218C130.733 528.263 122.949 509.359 124.2 490.964L129.575 489.991Z"></path>
<path fill="#8B8989" d="M183.417 488.554C191.294 496.524 200.097 507.135 195.325 519.135C194.491 529.607 182.953 528.958 175.401 531.739C175.308 528.402 175.123 521.684 175.03 518.348C182.953 510.332 182.768 498.98 183.417 488.554Z"></path>
<path fill="#8B8989" d="M359.302 503.289C485.565 500.463 611.873 500.046 738.136 501.899C739.619 512.185 740.777 522.564 740.731 532.99C740.453 594.939 740.36 656.843 740.499 718.792C644.864 719.209 549.182 718.051 453.501 718.746C421.623 719.441 389.698 716.661 357.958 719.673C358.7 715.92 360.183 708.367 360.924 704.567C358.561 637.521 361.017 570.382 359.302 503.289ZM538.016 633.953C547.375 633.444 556.781 632.702 565.817 629.968C558.218 620.053 545.661 625.15 535.328 625.891C535.699 621.304 536.348 612.037 536.718 607.403C539.174 609.396 544.039 613.381 546.495 615.373C556.874 614.261 567.531 613.288 576.381 607.125C573.184 602.631 569.987 598.183 566.79 593.735C560.72 599.434 555.438 611.017 545.337 608.006C544.827 601.102 545.476 594.198 547.283 587.34C530.787 596.978 520.964 619.867 538.016 633.953Z"></path>
<path fill="#8B8989" d="M125.775 571.957C127.026 550.829 149.267 542.766 166.735 538.411C192.173 536.14 218.816 535.862 243.234 544.481C248.702 546.288 251.806 550.226 252.501 556.342C224.978 548.048 195.787 549.902 167.43 550.504C155.244 550.411 144.355 556.064 134.023 561.995C140.371 572.745 150.379 580.112 160.851 586.506C150.425 585.626 140 584.607 129.575 584.143L126.795 588.684C126.239 583.124 125.497 577.564 125.775 571.957Z"></path>
<path fill="#8B8989" d="M143.104 562.783C152.51 558.752 162.657 557.223 172.851 557.269C174.797 564.219 176.928 571.169 179.06 578.073C166.132 575.571 152.649 572.652 143.104 562.783Z"></path>
<path fill="#8B8989" d="M194.537 556.806C213.024 556.574 231.697 557.037 249.629 561.995C249.166 570.66 248.702 579.417 245.876 587.711C242.818 588.962 236.748 591.511 233.69 592.762C229.473 592.762 221.133 592.669 216.917 592.623C226.23 587.109 236.748 584.004 245.969 578.305C244.439 567.463 232.3 562.922 223.635 558.705C225.767 565.053 227.991 571.448 230.261 577.795C220.299 578.351 210.337 578.398 200.375 577.934C198.429 570.892 196.483 563.849 194.537 556.806Z"></path>
<path fill="#8B8989" d="M163.122 596.329C175.215 595.727 187.355 594.893 199.402 596.376C194.815 608.886 191.247 621.721 187.401 634.509C186.196 634.324 183.787 633.953 182.582 633.768C177.902 620.377 171.369 607.82 163.122 596.329Z"></path>
<path fill="#8B8989" d="M566.142 603.511C568.366 605.828 568.366 605.828 566.142 603.511Z"></path>
<path fill="#8B8989" d="M172.064 626.864C174.195 629.042 174.195 629.042 172.064 626.864Z"></path>
<path fill="#8B8989" d="M181.099 639.05C183.601 646.834 184.806 655.406 189.81 662.125C195.833 663.19 201.903 664.071 208.019 664.72L208.853 658.001C216.962 659.993 225.071 661.986 233.133 664.163L228.175 667.129C210.29 668.009 192.312 669.121 174.519 666.712C164.326 661.893 153.205 660.179 142.039 659.854C153.761 659.345 165.438 658.094 177.114 657.074L184.018 656.426C183.323 652.07 181.84 643.405 181.099 639.05Z"></path>
<path fill="#8B8989" d="M154.966 687.563C177.763 687.516 200.838 685.246 223.31 690.204C219.372 694.745 214.738 699.61 208.205 699.702C187.447 702.39 166.318 701.509 145.653 698.637C147.97 695.857 152.649 690.296 154.966 687.563Z"></path>
<path fill="#8B8989" d="M499.652 743.998C526.943 742.933 554.419 743.303 581.757 743.952C589.31 762.069 590.978 782.595 596.399 801.593C562.065 801.268 527.684 802.612 493.396 800.805C498.725 782.039 504.007 763.274 510.123 744.74C507.529 744.554 502.293 744.184 499.652 743.998Z"></path>
<path fill="#8B8989" d="M887.613 750.856C902.301 749.698 917.314 749.003 930.844 742.377C931.678 748.261 929.268 751.69 923.569 752.617C911.939 755.397 898.363 757.389 887.613 750.856Z"></path>
<path fill="#39292C" d="M418.75 336.483C438.581 327.912 464.9 326.429 480.978 343.156C498.446 361.319 494.044 390.325 485.148 411.592C470.645 440.598 448.126 470.715 414.487 477.527C388.864 480.214 362.917 480.816 337.247 478.592C332.289 477.017 327.378 475.349 322.466 473.588C318.76 455.054 320.474 435.177 330.343 418.728C350.592 383.374 381.08 352.793 418.75 336.483ZM441.64 386.525C433.346 391.251 428.295 403.715 436.45 411.036C447.663 421.369 467.494 408.21 464.807 393.892C461.842 384.857 449.146 381.289 441.64 386.525Z"></path>
<path fill="#39292C" d="M614.746 365.813C615.72 346.492 633.883 331.804 652.648 331.665C688.465 330.182 719.093 353.488 743.604 377.165C763.064 397.506 784.239 420.071 788.41 449.077C791.051 468.538 775.575 484.338 758.014 489.574C757.041 490.686 755.095 492.864 754.122 493.976L751.944 496.941L751.017 494.068L749.071 488.091C737.488 486.099 725.672 486.608 714.088 484.94C655.985 479.658 609.835 423.639 614.746 365.813ZM645.652 387.127C639.489 392.456 636.061 402.511 642.13 409.229C649.359 419.191 666.827 414.697 668.912 402.65C675.213 389.074 655.568 376.98 645.652 387.127Z"></path>
<path fill="#39292C" d="M191.988 446.297C205.981 446.204 211.495 467.101 212.236 476.971L210.104 479.148C210.429 491.149 212.838 503.196 210.104 515.243C205.61 519.135 201.486 523.398 197.872 528.124C203.618 529.329 209.363 530.534 215.062 531.692C216.73 516.587 218.306 501.482 218.028 486.284C219.186 486.747 221.596 487.581 222.8 487.998C226.229 501.899 222.708 516.309 222.708 530.441C234.523 533.268 245.226 539.615 257.134 541.978C258.849 539.106 262.324 533.314 264.038 530.441C265.799 532.712 267.513 534.982 269.228 537.252C247.682 554.118 257.134 585.95 253.15 609.72C255.235 611.064 259.405 613.705 261.49 615.049L261.351 615.651C260.47 617.273 258.663 620.423 257.783 622.045C262.092 637.197 269.645 651.004 277.522 664.534L277.197 672.874C256.81 650.819 248.701 620.748 247.636 591.325C223.588 604.113 214.228 633.026 208.853 658.001L208.019 664.719C201.903 664.071 195.833 663.19 189.81 662.125C184.806 655.406 183.601 646.834 181.099 639.05C181.84 643.405 183.323 652.07 184.018 656.425L177.114 657.074C169.932 638.957 163.538 617.782 146.301 606.755C148.294 604.438 150.333 602.121 152.418 599.804C156.819 606.106 161.546 612.268 167.198 617.458C163.584 608.886 157.468 601.75 151.398 594.8C142.919 593.873 133.559 594.986 126.794 588.684L129.575 584.143C140 584.607 150.425 585.626 160.851 586.506C150.379 580.112 140.371 572.745 134.023 561.995C144.355 556.064 155.244 550.411 167.43 550.504C195.787 549.902 224.978 548.048 252.501 556.342C251.806 550.226 248.701 546.288 243.234 544.481C218.815 535.862 192.173 536.14 166.735 538.411C149.267 542.766 127.026 550.828 125.775 571.957C116.23 560.142 125.96 548.28 137.359 543.276C127.489 526.503 114.886 507.088 121.883 486.84C123.458 479.797 131.104 471.596 138.61 476.368C149.962 482.531 158.58 493.188 163.399 505.096C165.762 502.27 170.442 496.57 172.805 493.744C173.685 501.899 174.427 510.146 175.029 518.348C175.122 521.684 175.307 528.402 175.4 531.738C182.952 528.958 194.49 529.607 195.324 519.135C200.096 507.135 191.293 496.524 183.416 488.554C181.655 486.655 178.18 482.948 176.419 481.048L174.334 492.447L168.635 497.219C173.778 479.843 175.585 456.908 191.988 446.297ZM187.91 467.287C199.447 480.446 196.992 498.331 199.911 514.317C211.773 498.702 200.745 477.388 199.262 459.688C198.66 446.019 179.338 459.919 187.91 467.287ZM187.91 485.404C189.856 480.168 187.817 472.986 183.879 469.186C176.002 471.225 179.709 487.952 187.91 485.404ZM129.575 489.991L124.2 490.964C122.949 509.359 130.733 528.263 144.819 540.218C142.27 524.371 134.115 510.332 129.853 495.041C131.289 495.829 134.115 497.404 135.552 498.146C140.927 511.073 144.958 524.603 149.591 537.808C156.773 536.14 164.326 534.75 169.747 529.283C161.499 513.622 156.541 493.234 139.583 484.616C138.239 476.646 124.153 484.06 129.575 489.991ZM143.104 562.783C152.649 572.652 166.133 575.571 179.06 578.073C176.929 571.169 174.797 564.219 172.851 557.269C162.658 557.223 152.51 558.752 143.104 562.783ZM194.536 556.806C196.482 563.848 198.428 570.891 200.374 577.934C210.336 578.398 220.298 578.351 230.26 577.795C227.99 571.447 225.766 565.053 223.634 558.705C232.299 562.922 244.439 567.463 245.968 578.305C236.747 584.004 226.229 587.109 216.916 592.622C221.132 592.669 229.472 592.761 233.689 592.761C236.747 591.51 242.817 588.962 245.875 587.711C248.701 579.417 249.165 570.66 249.628 561.995C231.697 557.037 213.024 556.574 194.536 556.806ZM163.121 596.329C171.369 607.82 177.902 620.377 182.582 633.768C183.786 633.953 186.196 634.324 187.4 634.509C191.246 621.721 194.814 608.886 199.401 596.376C187.354 594.893 175.214 595.727 163.121 596.329ZM215.85 601.38C215.387 609.813 212.375 617.643 207.324 624.408C203.108 635.528 198.845 647.112 200.467 659.252C205.564 637.289 213.765 616.531 227.248 598.368C224.376 599.109 218.723 600.638 215.85 601.38ZM172.064 626.864C174.195 629.042 174.195 629.042 172.064 626.864Z"></path>
<path fill="#39292C" d="M864.399 755.165C878.439 735.102 905.452 734.268 927.09 728.615C934.133 735.936 938.999 744.971 942.149 754.609C921.901 760.725 900.68 761.42 879.829 764.247L881.868 758.269C882.377 756.694 883.397 753.636 883.906 752.107C877.42 753.173 870.886 754.238 864.399 755.165ZM887.613 750.856C898.363 757.389 911.939 755.397 923.569 752.617C929.268 751.69 931.678 748.261 930.844 742.377C917.314 749.003 902.301 749.698 887.613 750.856Z"></path>
<path fill="#E7997D" d="M263.435 708.089C270.386 702.251 277.15 695.903 285.305 691.825C290.309 696.135 295.406 700.444 300.179 704.985C287.854 705.309 275.575 706.282 263.435 708.089Z"></path>
<path fill="#E7997D" d="M800.04 700.953C804.349 688.814 818.898 692.752 828.814 691.362C852.445 691.733 876.353 689.787 899.706 694.142C894.563 700.305 888.123 702.76 880.385 701.509C853.603 700.073 826.822 702.529 800.04 700.953Z"></path>
<path fill="#E7997D" d="M153.436 704.984C173.962 707.857 194.628 706.884 215.108 704.567C219.093 710.359 223.402 715.966 227.989 721.341C207.184 736.956 178.689 730.005 154.502 729.31C154.177 721.202 153.807 713.093 153.436 704.984Z"></path>
<path fill="#E7997D" d="M802.819 709.155C839.378 709.711 875.982 708.182 912.54 710.035C918.703 710.081 924.263 713.093 929.035 716.846C898.454 723.936 867.364 728.754 837.895 740.199C826.311 729.727 814.079 719.997 802.819 709.155Z"></path>
<path fill="#E7997D" d="M248.979 735.149C250.879 728.059 247.404 713.093 259.034 713.788C283.082 713.093 307.639 711.61 331.409 716.198C337.062 724.214 339.61 734.5 346.931 741.265C355.735 744.786 365.465 743.906 374.732 744.276C412.727 743.952 450.767 745.388 488.762 744.508C485.889 753.543 483.063 762.625 480.19 771.66C363.473 770.317 246.802 773.792 130.13 772.263C138.841 759.521 147.969 747.057 157.051 734.546C183.23 737.512 209.687 736.029 234.615 726.994C235.171 727.967 236.284 729.959 236.886 730.932L233.086 734.314C230.399 742.933 228.546 751.829 227.063 760.772C234.337 752.709 240.732 743.952 247.08 735.195C247.543 735.195 248.516 735.149 248.979 735.149Z"></path>
<path fill="#E7997D" d="M764.78 711.749C775.02 710.869 785.445 708.645 795.731 710.406C819.918 726.716 842.159 746.362 855.92 772.541C775.807 772.216 695.694 771.614 615.581 770.687C613.218 761.745 610.624 752.895 607.982 744.045C649.174 745.713 690.412 744.74 731.604 745.342C740.407 744.972 750.879 745.898 757.412 738.716C764.919 731.812 763.992 720.97 764.78 711.749Z"></path>
<path fill="#E7997D" d="M920.603 722.823C932.511 715.966 938.349 729.403 944.141 737.234C951.091 748.215 961.007 757.945 963.185 771.197C936.959 771.29 910.687 772.124 884.462 772.263C876.307 771.938 867.318 773.05 860.229 768.185C866.715 766.61 873.249 765.266 879.828 764.247C900.679 761.42 921.9 760.725 942.148 754.609C938.998 744.972 934.133 735.936 927.09 728.615C926.209 727.828 924.402 726.206 923.522 725.418L920.603 722.823Z"></path>
<path fill="#E7997D" d="M132.679 779.398C247.636 780.001 362.546 778.472 477.503 778.703C474.167 789.638 471.063 800.666 468.097 811.694C480.515 823.324 498.261 820.636 513.83 821.563C544.735 821.795 575.687 822.721 606.592 820.822C613.913 821.285 619.473 816.559 624.802 812.296C622.253 800.99 619.658 789.685 616.647 778.472C732.113 777.128 847.579 780.696 963 778.611C962.305 818.366 962.536 858.121 962.351 897.83C690.412 898.108 418.426 896.44 146.441 896.811C144.356 859.789 145.56 822.721 145.329 785.7C141.112 783.568 136.896 781.483 132.679 779.398ZM358.098 840.931C344.105 845.982 351.287 868.361 365.28 866.554C488.994 866.276 612.754 866.74 736.469 866.832C751.944 868.037 755.142 843.896 741.056 839.263C620.585 837.456 500.022 839.865 379.551 838.892C372.416 839.217 364.863 838.244 358.098 840.931Z"></path>
<path fill="#E7997D" d="M360.507 847.557C382.145 844.174 404.108 846.769 425.885 846.12C530.834 847.001 635.968 843.665 740.823 846.815C740.87 849.827 741.009 855.804 741.055 858.816C619.055 859.372 496.778 857.612 374.685 858.955C367.874 860.021 353.649 857.519 360.507 847.557Z"></path>
<path fill="#E7997D" d="M328.999 905.753C476.9 903.205 624.939 906.17 772.887 905.012C773.211 908.209 773.86 914.603 774.184 917.8C624.708 918.634 475.185 918.125 325.709 917.569C326.497 914.603 328.165 908.719 328.999 905.753Z"></path>
</svg>
