<svg xmlns="http://www.w3.org/2000/svg" fill="none" viewBox="0 0 1102 1024" height="1024" width="1102">
<rect fill="white" transform="translate(0.598389)" height="1024" width="1100.6"></rect>
<path fill="#FDFDFD" d="M397.752 584.317C478.829 573.23 561.076 567.86 642.673 576.175C684.164 579.207 725.092 587.003 766.627 589.515C764.765 608.398 762.989 627.325 760.867 646.251C741.507 655.736 742.157 680.813 728.341 695.365C703.524 724.427 663.722 730.75 628.294 737.896C575.671 749.2 520.797 748.724 468.218 737.377C439.2 731.183 407.497 724.383 386.275 701.992C363.494 674.793 356.001 638.975 349.374 605.063C349.201 594.322 337.637 593.759 329.885 591.247C352.709 591.81 375.187 586.916 397.752 584.317Z"></path>
<path fill="#22131E" d="M409.36 178.109C498.059 146.319 598.54 143.72 687.543 176.03C700.232 168.927 715.218 165.549 726.782 156.887C726.089 161.348 725.309 165.765 724.53 170.183C712.533 169.49 700.796 174.99 693.909 184.822L691.31 185.515C614.824 153.292 527.77 153.812 447.906 172.522C400.784 182.83 357.127 210.115 330.361 250.654C309.053 281.014 298.485 317.092 290.602 352.866L287.138 354.079C278.562 361.875 278.172 374.088 277.003 384.786C274.794 410.339 277.826 437.365 291.035 459.756C301.517 475.565 316.545 488.168 333.263 497.003C335.342 495.054 337.464 493.105 339.543 491.2C358.6 503.63 380.558 510.3 402.257 516.406C469.215 533.947 539.248 533.904 607.895 529.096C651.335 525.372 695.512 519.958 736.137 503.283C768.836 489.684 793.307 458.89 799.154 423.982C801.276 427.447 803.355 430.912 805.434 434.377C797.638 459.063 783.042 480.502 763.942 497.783C808.292 470.151 819.379 410.209 809.245 362.308C810.154 384.266 810.847 406.311 807.382 428.14C805.174 424.805 803.008 421.47 800.886 418.092C804.914 394.488 804.87 369.627 797.984 346.63C810.674 331.774 830.337 344.811 839.302 357.284C856.323 381.451 856.67 412.721 855.803 441.133C854.071 478.9 845.972 519.525 818.253 547.244C809.201 556.425 798.287 563.485 789.149 572.58C824.793 555.386 848.008 519.135 854.288 480.632C854.634 475.695 859.918 477.427 863.123 477.774C856.063 514.068 836.877 549.322 804.87 569.245C798.417 574.746 788.023 577.258 785.597 586.223C782.696 582.541 779.88 578.73 776.979 575.049L782.176 586.136L771.045 580.939C773.99 583.711 776.979 586.483 779.967 589.298L773.904 589.644C772.648 609.87 770.309 630.053 767.06 650.106C830.25 673.363 890.062 705.976 943.68 746.731C961.351 760.721 980.364 775.186 990.023 796.278C994.787 810.441 981.187 822.308 969.71 827.895C943.984 839.546 915.659 843.79 887.94 847.861C883.176 843.703 893.96 836.947 894.826 832.616C889.326 835.518 883.912 838.549 878.325 841.365L884.822 841.538C883.566 843.53 881.054 847.558 879.798 849.55C842.984 849.853 806.256 853.708 769.399 853.622C745.925 853.535 722.451 854.141 699.063 855.83C697.028 853.058 694.992 850.287 692.956 847.558C721.455 844.483 749.087 833.525 772.647 817.327C791.921 803.685 806.733 779.517 800.496 755.307C795.515 744.912 784.385 737.853 772.951 737.116C741.161 732.656 710.973 746.731 679.443 747.554C679.963 745.389 681.046 741.058 681.566 738.892C706.599 738.156 734.058 733.695 751.642 714.119C755.8 691.64 758.658 668.989 760.867 646.251C762.989 627.324 764.765 608.398 766.627 589.515C725.093 587.003 684.164 579.207 642.673 576.175C561.076 567.859 478.83 573.23 397.752 584.317C375.188 586.916 352.71 591.81 329.885 591.247C331.098 629.403 331.271 667.647 334.779 705.716C337.334 725.466 356.737 735.947 374.408 739.758C405.462 747.381 437.598 749.633 468.565 757.862C512.698 767.91 559.56 767.737 603.13 755.177C626.561 748.767 651.118 747.164 674.16 739.239C674.16 742.747 674.203 746.255 674.246 749.763C633.534 753.315 591.567 761.977 556.485 783.892C539.767 793.55 529.416 810.354 520.971 827.159C521.577 833.829 520.624 840.195 512.525 842.534C508.584 838.766 510.836 833.569 511.182 828.978C508.54 831.187 503.213 835.561 500.571 837.727C491.823 840.022 483.247 842.924 475.062 846.822C483.637 847.601 491.043 842.101 498.492 838.809C501.697 840.239 504.902 841.711 508.064 843.227C476.058 857.433 441.063 864.362 406.068 860.898C427.16 856.87 451.154 860.378 469.864 849.204C452.54 846.432 435.303 852.366 417.935 850.98C382.767 848.727 346.559 842.794 315.896 824.517C300.304 814.252 284.106 799.224 283.283 779.344C282.114 765.875 293.331 756.39 299.264 745.562C285.925 751.582 276.526 765.398 273.668 779.474C276.353 795.586 288.09 808.535 299.698 819.32C325.597 842.361 360.419 850.893 394.028 854.704C395.197 856.004 397.579 858.516 398.792 859.772C320.097 849.42 239.583 856.87 161.797 839.156C143.347 834.089 120.349 828.761 112.337 809.142C106.013 790.345 123.511 776.096 135.811 765.008C178.515 730.447 228.019 705.716 277.263 681.982C292.638 674.1 308.49 667.17 325.034 662.059C325.641 638.845 324.904 615.631 323.778 592.416C314.943 589.991 323.995 580.766 317.108 577.258C288.134 556.685 261.714 530.396 247.552 497.307C242.571 486.003 240.579 473.746 236.378 462.182C238.457 510.256 274.404 549.669 311.911 576.218C309.659 577.517 307.364 578.817 305.068 580.073C284.452 561.882 262.537 544.472 248.375 520.391C226.719 484.876 220.353 440.786 227.932 400.205L234.169 396.133C233.086 418.871 230.747 441.739 233.043 464.477C235.988 437.452 234.472 409.949 238.673 382.88C236.031 387.038 230.704 395.354 228.062 399.512C232.09 378.203 240.492 356.201 257.99 342.385C266.435 335.326 277.436 333.03 287.094 328.223C291.122 320.947 293.461 312.847 296.233 305.052C271.286 290.846 261.974 259.402 267.778 232.463C279.731 172.998 360.982 139.043 409.36 178.109ZM312.561 181.097C287.267 195.823 270.333 224.971 272.975 254.552C274.881 272.136 282.633 291.365 299.914 298.945C290.472 288.507 279.645 278.112 276.873 263.647C268.904 229.388 290.386 193.874 321.309 179.451C340.929 168.97 363.754 172.132 385.062 171.222C360.982 167.324 333.653 166.761 312.561 181.097ZM387.185 175.51C390.303 180.447 394.504 182.353 399.831 181.184C401.997 175.467 387.921 168.364 387.185 175.51ZM239.453 382.144C247.335 370.927 252.662 357.067 264.789 349.531C272.542 344.377 283.543 344.507 289.303 336.365C264.616 338.314 245.473 359.103 239.453 382.144ZM764.375 662.059C769.356 672.844 783.692 676.395 792.137 684.624C796.815 681.636 801.449 678.647 805.91 675.312C795.039 667.04 780.963 663.749 768.1 659.547L764.375 662.059ZM283.673 685.75C282.417 693.503 293.677 693.156 298.442 696.708C308.273 686.4 325.337 682.589 329.235 667.517C313.167 671.241 298.831 679.644 283.673 685.75ZM764.678 671.934C763.552 684.191 761.906 696.361 759.308 708.402C769.356 701.992 779.101 695.192 788.759 688.219C780.963 682.459 772.951 677.045 764.678 671.934ZM795.905 688.262C806.949 696.015 817.82 704.027 828.388 712.386C835.664 706.193 842.94 700.043 850.13 693.763C837.397 687.656 824.533 681.809 811.627 676.135C806.386 680.207 801.102 684.234 795.905 688.262ZM301.3 700.476C309.876 708.618 318.754 716.457 328.412 723.214C328.239 709.398 327.719 695.582 327.46 681.766C318.364 687.483 309.702 693.806 301.3 700.476ZM236.508 709.181C244.174 715.288 251.493 722.088 260.458 726.375C272.066 718.58 282.59 709.311 293.764 700.909C287.614 697.314 281.421 693.763 275.227 690.211C262.494 696.881 249.501 703.031 236.508 709.181ZM790.708 692.074C778.668 698.527 767.234 706.496 757.879 716.544C769.962 725.076 782.999 732.049 795.645 739.758C804.914 731.27 814.702 723.387 824.62 715.634C812.969 708.445 803.441 697.141 790.708 692.074ZM833.629 714.768C841.771 723.127 850.996 730.36 859.572 738.329C868.71 730.577 878.542 723.69 888.676 717.324C877.415 710.091 865.938 703.248 854.548 696.318C847.315 702.165 839.865 707.839 833.629 714.768ZM264.27 729.147C271.632 735.471 279.082 741.707 286.531 747.944C298.831 737.853 313.6 731.833 327.286 723.95C316.285 718.276 306.021 711.303 296.709 703.204C286.575 712.646 275.747 721.351 264.27 729.147ZM201.816 728.324C210.868 736.38 220.353 743.96 230.098 751.236C238.89 744.133 247.768 737.16 255.781 729.147C247.725 723.344 239.713 717.497 231.7 711.563C221.782 717.194 211.821 722.781 201.816 728.324ZM827.175 717.973C818.123 726.809 808.249 734.734 797.897 741.967C805.304 750.889 813.403 759.248 821.848 767.261C833.759 759.551 845.019 750.889 856.367 742.357C847.185 733.565 837.527 725.336 827.175 717.973ZM752.681 723.734C749.52 729.017 758.528 734.085 762.47 730.273C765.545 725.033 756.536 719.706 752.681 723.734ZM864.033 742.227C874.34 750.283 884.215 758.902 893.83 767.824C903.835 758.512 914.273 749.633 924.927 741.058C913.623 733.565 902.232 726.246 890.409 719.576C881.617 727.155 872.825 734.648 864.033 742.227ZM166.085 751.062C176.739 759.854 187.35 768.646 197.831 777.655C207.533 769.859 217.191 762.063 226.849 754.224C216.801 746.428 206.797 738.459 196.879 730.49C186.397 736.986 176.046 743.743 166.085 751.062ZM233.692 755.177C244.607 763.189 255.304 771.505 266.045 779.864C271.069 770.595 276.916 761.803 281.291 752.188C281.291 751.669 281.334 750.543 281.334 750.023C275.704 742.53 267.388 737.809 260.285 731.919C251.147 739.412 242.095 746.905 233.692 755.177ZM303.596 741.837C327.849 733.305 350.587 747.554 374.018 751.972C408.32 759.595 444.051 760.158 477.53 771.505C496.933 777.352 515.687 787.443 526.254 805.374C522.486 795.282 517.159 785.148 506.938 780.297C458.647 752.448 400.005 759.725 348.682 741.101C334.346 735.644 317.412 734.215 303.596 741.837ZM926.616 742.92C918.344 753.401 908.382 762.366 898.161 770.855C908.036 780.86 918.127 790.605 928.435 800.176C938.83 791.688 949.008 782.549 961.568 777.309C953.209 787.487 942.338 795.022 931.64 802.515C938.397 810.614 945.153 818.757 951.779 826.986C965.639 823.694 977.203 815.248 986.514 804.681C974.561 777.742 948.964 760.677 926.616 742.92ZM827.998 768.43C837.267 777.049 846.015 786.231 856.02 794.026C868.97 790.128 878.585 778.175 889.889 770.682C879.711 762.02 869.663 753.271 859.875 744.219C850.087 753.358 839.475 761.544 827.998 768.43ZM134.468 775.013C143.867 786.057 156.08 794.156 166.735 803.944C175.613 796.365 184.665 788.959 193.804 781.683C183.756 771.721 172.928 762.626 162.1 753.531C152.529 760.158 142.437 766.351 134.468 775.013ZM229.318 757.213C220.266 765.225 210.911 772.934 201.296 780.297C211.821 789.479 222.259 798.791 232.523 808.232C242.571 800.047 252.359 791.601 261.844 782.809C251.06 774.19 240.276 765.571 229.318 757.213ZM808.205 763.493C808.205 765.918 808.162 770.682 808.162 773.064C817.084 778.261 817.257 757.905 808.205 763.493ZM820.679 769.383C811.887 778.175 803.788 787.703 798.114 798.834C807.036 806.24 815.785 813.906 824.36 821.745C833.369 813.559 842.984 806.11 852.902 799.094C842.724 788.613 831.81 778.868 820.679 769.383ZM861.607 797.318C872.088 806.803 882.136 816.851 891.535 827.462C903.142 820.229 914.013 811.784 923.671 802.082C913.19 792.814 903.099 783.155 893.527 772.934C883.046 781.293 872.391 789.392 861.607 797.318ZM116.884 800.566C117.794 814.122 130.614 820.965 140.488 827.765C147.981 820.879 155.474 814.036 163.053 807.279C152.919 796.928 141.788 787.66 131.003 777.958C125.46 784.845 118.747 791.514 116.884 800.566ZM169.463 807.669C181.027 816.678 192.114 826.379 201.729 837.467C209.872 828.025 218.577 819.103 228.279 811.221C218.707 801.519 208.356 792.64 198.568 783.155C188.346 790.691 178.645 798.877 169.463 807.669ZM235.945 810.441C246.469 819.32 256.647 828.631 266.782 837.986C273.971 831.706 281.724 825.989 290.169 821.485C283.889 829.281 276.7 836.297 269.683 843.4C292.508 847.601 315.852 845.826 338.85 848.294C307.32 837.51 282.547 813.429 266.045 785.018C256.214 793.723 246.209 802.212 235.945 810.441ZM827.132 824.43C836.097 832.01 845.366 839.242 855.111 845.826C866.718 841.148 878.238 836.124 889.456 830.537C879.711 820.056 869.663 809.748 858.186 801.173C846.232 806.327 836.877 816.028 827.132 824.43ZM765.415 829.194C774.077 833.136 782.436 837.77 790.535 842.794C800.756 836.904 810.587 830.321 820.116 823.304C812.233 816.504 804.394 809.618 796.771 802.558C786.593 811.74 776.286 820.792 765.415 829.194ZM898.508 829.498C899.547 831.49 901.626 835.431 902.665 837.423C918.127 838.116 933.026 832.746 948.055 829.757C941.645 821.355 935.365 812.78 927.742 805.417C917.954 813.429 908.815 822.178 898.508 829.498ZM146.942 827.852C163.356 832.053 179.728 836.514 196.272 840.239C189.386 827.462 176.956 819.45 166.561 809.835C159.632 815.422 153.005 821.355 146.942 827.852ZM231.354 812.52C222.605 820.879 214.246 829.628 206.753 839.156C225.767 842.274 245.04 844.353 264.356 844.093C255.304 831.663 243.091 822.221 231.354 812.52ZM822.844 826.293C813.143 833.006 803.311 839.589 794.043 846.908C810.717 845.436 827.478 845.089 844.24 844.743C837.483 838.16 830.337 832.01 822.844 826.293ZM761.214 832.14C749.346 837.986 736.96 842.664 724.833 847.948C744.279 847.385 763.769 847.038 783.215 846.562C776.935 840.239 769.139 835.951 761.214 832.14Z"></path>
<path fill="#22131E" d="M730.03 163.773C730.074 162.863 730.074 160.958 730.074 160.005C772.085 156.064 816.131 180.621 828.302 222.329C826.613 222.545 823.234 223.065 821.545 223.325C811.887 196.256 788.11 174.254 759.611 168.884C749.91 166.155 739.169 168.451 730.03 163.773Z"></path>
<path fill="#22131E" d="M282.46 365.34C283.716 364.517 286.185 362.958 287.398 362.135C290.819 376.644 286.575 391.716 288.437 406.441C289.13 437.278 303.466 470.974 332.484 484.66C330.665 487.172 328.802 489.684 327.027 492.196C312.734 479.073 296.623 466.426 289.043 447.976C278.129 421.903 280.122 392.842 282.46 365.34Z"></path>
<path fill="#22131E" d="M878.845 533.038C891.665 552.614 877.329 585.573 853.595 588.605C864.899 576.391 877.979 564.265 878.672 546.291C872.738 551.488 867.021 557.595 858.749 558.591C865.895 550.102 877.589 545.684 878.845 533.038Z"></path>
<path fill="#22131E" d="M884.995 584.144C891.708 575.222 890.669 562.922 897.339 553.957C904.312 578.774 881.963 604.24 858.879 610.13C866.891 600.775 877.502 593.976 884.995 584.144Z"></path>
<path fill="#22131E" d="M698.197 750.196C721.628 748.117 744.236 737.983 768.013 741.014C779.664 741.967 793.133 746.342 797.811 758.209C801.622 780.99 788.109 803.468 769.616 815.941C746.401 831.793 719.116 840.802 691.57 845.696L694.429 852.755C685.983 854.964 677.624 857.563 669.265 860.118C669.569 857.736 670.261 852.972 670.565 850.59C661.859 852.322 653.154 853.968 644.535 856.09C652.374 855.57 660.213 855.007 668.053 854.271L668.962 859.555C658.914 861.287 648.909 863.107 638.905 865.099L640.854 858.472C629.766 858.212 618.679 857.866 607.678 859.165C617.899 860.161 628.207 860.161 638.472 860.291L638.861 864.363C626.215 866.311 613.481 867.394 600.748 868.434C601.484 866.095 602.914 861.417 603.65 859.079C583.727 860.465 562.505 856.913 544.142 866.528C529.892 866.485 521.533 853.102 517.506 840.975C519.281 840.412 522.833 839.329 524.565 838.766C524.262 835.908 523.656 830.147 523.352 827.289C531.668 813.516 540.33 799.224 554.146 790.215C596.071 760.721 648.779 755.913 698.197 750.196Z"></path>
<path fill="#DEDEE0" d="M312.56 181.097C333.652 166.762 360.981 167.325 385.062 171.223C363.753 172.132 340.929 168.97 321.309 179.452C290.385 193.874 268.903 229.388 276.873 263.647C279.644 278.113 290.472 288.507 299.914 298.945C282.633 291.366 274.88 272.136 272.975 254.552C270.333 224.971 287.267 195.823 312.56 181.097Z"></path>
<path fill="#DEDEE0" d="M797.464 299.725C806.516 289.85 813.662 278.589 820.722 267.242C817.473 280.408 810.457 293.964 797.464 299.725Z"></path>
<path fill="#DEDEE0" d="M239.452 382.144C245.473 359.103 264.616 338.314 289.303 336.365C283.542 344.508 272.542 344.378 264.789 349.532C252.662 357.068 247.335 370.927 239.452 382.144Z"></path>
<path fill="#DEDEE0" d="M329.885 591.247C337.637 593.759 349.201 594.322 349.374 605.063C356.001 638.975 363.494 674.793 386.275 701.992C407.497 724.383 439.2 731.183 468.218 737.377C520.797 748.724 575.671 749.2 628.294 737.896C663.722 730.75 703.524 724.427 728.341 695.365C742.157 680.813 741.507 655.736 760.867 646.251C758.658 668.989 755.8 691.641 751.642 714.119C734.058 733.695 706.599 738.156 681.565 738.892C681.046 741.058 679.963 745.389 679.443 747.554C710.973 746.732 741.161 732.656 772.951 737.117C784.384 737.853 795.515 744.913 800.496 755.307C806.733 779.518 791.92 803.685 772.647 817.328C749.086 833.526 721.454 844.483 692.956 847.558C694.992 850.287 697.027 853.059 699.063 855.831C722.451 854.141 745.925 853.535 769.399 853.622C736.223 857.909 702.354 854.834 669.568 863.02L668.962 859.555L668.053 854.271C660.213 855.008 652.374 855.571 644.535 856.09C653.154 853.968 661.859 852.322 670.565 850.59C670.261 852.972 669.568 857.736 669.265 860.118C677.624 857.563 685.983 854.964 694.429 852.756L691.57 845.696C719.116 840.802 746.401 831.793 769.616 815.942C788.109 803.468 801.622 780.99 797.811 758.209C793.133 746.342 779.664 741.967 768.013 741.015C744.236 737.983 721.628 748.117 698.197 750.196C648.779 755.913 596.071 760.721 554.146 790.215C540.33 799.224 531.668 813.516 523.352 827.289C523.656 830.147 524.262 835.908 524.565 838.766C522.833 839.329 519.281 840.412 517.506 840.975L512.525 842.534C520.624 840.195 521.577 833.829 520.97 827.159C529.416 810.355 539.767 793.55 556.485 783.892C591.566 761.977 633.534 753.315 674.246 749.763C674.203 746.255 674.159 742.747 674.159 739.239C651.118 747.165 626.561 748.767 603.13 755.177C559.56 767.737 512.698 767.91 468.565 757.862C437.598 749.633 405.461 747.381 374.408 739.759C356.737 735.947 337.334 725.466 334.779 705.717C331.271 667.647 331.097 629.404 329.885 591.247Z"></path>
<path fill="#DEDEE0" d="M303.595 741.837C317.411 734.215 334.345 735.644 348.681 741.101C400.004 759.725 458.646 752.448 506.937 780.297C517.158 785.148 522.486 795.282 526.254 805.374C515.686 787.443 496.932 777.352 477.529 771.505C444.05 760.158 408.319 759.595 374.017 751.972C350.587 747.554 327.849 733.305 303.595 741.837Z"></path>
<path fill="#928485" d="M387.184 175.51C387.92 168.364 401.996 175.467 399.831 181.184C394.504 182.353 390.302 180.448 387.184 175.51Z"></path>
<path fill="#221320" d="M698.11 185.775C700.492 175.337 713.096 174.037 721.671 171.612C757.576 162.04 797.594 180.881 814.789 213.45C818.47 218.734 817.604 225.1 816.608 231.034L823.364 225.144C821.545 238.18 820.072 251.606 822.931 264.6C824.144 251.043 820.549 236.015 828.778 224.018C835.274 254.378 827.002 290.932 798.374 307.174C800.626 313.8 802.878 320.383 805.174 327.01C822.974 330.475 839.995 339.83 848.614 356.418C870.313 392.192 867.324 435.892 863.643 475.868C861.261 472.49 858.879 469.111 856.583 465.733C858.922 431.605 862.387 394.747 845.842 363.391C837.267 346.37 819.163 333.81 799.717 335.585C790.838 308.473 783.475 279.758 767.667 255.245C751.382 228.695 728.601 205.784 700.969 191.188C700.276 189.802 698.803 187.117 698.11 185.775ZM797.464 299.724C810.458 293.964 817.474 280.408 820.722 267.242C813.663 278.589 806.516 289.85 797.464 299.724Z"></path>
<path fill="#22141F" d="M604.516 349.878C603.65 332.337 616.816 315.49 634.4 313.108C668.269 308.343 701.098 327.963 721.151 354.079C737.609 374.825 745.622 400.768 748.523 426.797C712.966 406.918 669.698 417.702 635.223 434.55C620.758 408.217 601.788 381.538 604.516 349.878ZM644.492 361.529C638.125 366.856 638.472 377.51 643.929 383.357C653.717 387.039 661.556 375.735 660.04 366.813C659.477 359.623 649.256 357.891 644.492 361.529Z"></path>
<path fill="#231420" d="M344.307 451.008C325.467 388.164 378.263 316.139 443.445 313.974C460.249 312.674 478.05 323.892 479.782 341.562C486.409 376.124 463.368 405.489 447.083 433.554C415.293 418.915 377.57 414.324 344.394 426.797C344.351 434.853 344.134 442.952 344.307 451.008ZM428.936 365.903C418.108 375.128 435.216 391.543 444.528 381.365C453.839 371.36 438.767 356.461 428.936 365.903Z"></path>
<path fill="#FAFAFE" d="M644.492 361.529C649.256 357.891 659.477 359.623 660.04 366.813C661.556 375.735 653.717 387.039 643.929 383.357C638.472 377.51 638.125 366.856 644.492 361.529Z"></path>
<path fill="#EFEEF2" d="M428.936 365.903C438.767 356.461 453.839 371.36 444.527 381.365C435.216 391.543 418.108 375.128 428.936 365.903Z"></path>
<path fill="#2B1924" d="M517.679 396.783C531.971 396.437 546.61 394.401 560.773 397.389C568.395 403.539 557.958 412.418 555.229 418.611C545.657 430.305 560.123 447.11 573.636 441.999C588.492 441.003 595.075 426.061 593.169 412.765C596.85 417.096 603.347 422.293 599.362 428.789C592.216 454.083 552.284 455.469 541.37 432.081C528.117 445.377 505.899 455.079 488.791 442.865C480.042 437.625 479.003 427.144 480.215 418.005C482.078 417.615 485.759 416.836 487.622 416.403C488.098 423.982 486.236 433.424 493.988 438.058C505.552 448.106 530.196 441.523 529.459 424.458C524.392 415.71 517.462 407.524 517.679 396.783Z"></path>
<path fill="#D47890" d="M635.223 434.55C669.698 417.702 712.965 406.918 748.523 426.797C748.35 447.89 737.782 470.021 717.08 477.817C683.817 491.98 644.968 467.553 635.223 434.55Z"></path>
<path fill="#CE768D" d="M344.394 426.797C377.57 414.324 415.293 418.915 447.083 433.554C435.736 452.654 423.392 475.045 400.221 481.109C377.527 488.341 349.808 474.525 344.307 451.008C344.134 442.952 344.351 434.853 344.394 426.797Z"></path>
<path fill="#C45571" d="M764.375 662.059L768.1 659.547C780.963 663.748 795.039 667.04 805.91 675.312C801.449 678.647 796.814 681.636 792.137 684.624C783.691 676.395 769.356 672.844 764.375 662.059Z"></path>
<path fill="#D76085" d="M283.672 685.75C298.831 679.643 313.167 671.241 329.235 667.516C325.337 682.589 308.273 686.4 298.441 696.708C293.677 693.156 282.416 693.503 283.672 685.75Z"></path>
<path fill="#D76085" d="M761.213 832.139C769.139 835.951 776.935 840.238 783.215 846.562C763.769 847.038 744.279 847.385 724.833 847.948C736.959 842.664 749.346 837.986 761.213 832.139Z"></path>
<path fill="#CE5B75" d="M764.678 671.935C772.95 677.045 780.963 682.459 788.759 688.219C779.101 695.192 769.356 701.992 759.308 708.402C761.906 696.362 763.552 684.191 764.678 671.935Z"></path>
<path fill="#C4506C" d="M795.905 688.262C801.103 684.234 806.386 680.206 811.627 676.135C824.533 681.809 837.397 687.656 850.13 693.763C842.94 700.043 835.664 706.193 828.388 712.386C817.82 704.027 806.949 696.015 795.905 688.262Z"></path>
<path fill="#BD5873" d="M301.3 700.476C309.702 693.806 318.364 687.483 327.459 681.766C327.719 695.582 328.239 709.398 328.412 723.214C318.754 716.458 309.875 708.618 301.3 700.476Z"></path>
<path fill="#B44C71" d="M236.508 709.182C249.501 703.032 262.494 696.881 275.227 690.212C281.421 693.763 287.614 697.315 293.764 700.909C282.59 709.312 272.066 718.58 260.458 726.376C251.493 722.088 244.174 715.288 236.508 709.182Z"></path>
<path fill="#C3536F" d="M790.708 692.074C803.441 697.141 812.969 708.445 824.62 715.635C814.702 723.387 804.913 731.27 795.645 739.758C782.998 732.049 769.962 725.076 757.878 716.544C767.233 706.496 778.667 698.527 790.708 692.074Z"></path>
<path fill="#BF4D6C" d="M833.629 714.768C839.865 707.839 847.315 702.165 854.548 696.318C865.938 703.248 877.416 710.091 888.676 717.324C878.542 723.69 868.71 730.577 859.572 738.329C850.996 730.36 841.771 723.127 833.629 714.768Z"></path>
<path fill="#BB4C6F" d="M264.27 729.148C275.747 721.352 286.574 712.647 296.709 703.205C306.021 711.304 316.285 718.277 327.286 723.951C313.6 731.833 298.831 737.853 286.531 747.945C279.082 741.708 271.632 735.471 264.27 729.148Z"></path>
<path fill="#B6476E" d="M201.815 728.325C211.82 722.781 221.782 717.194 231.7 711.563C239.712 717.497 247.724 723.344 255.78 729.148C247.768 737.16 238.889 744.133 230.097 751.236C220.352 743.96 210.867 736.38 201.815 728.325Z"></path>
<path fill="#C4526F" d="M827.175 717.974C837.527 725.336 847.185 733.565 856.367 742.357C845.019 750.889 833.758 759.552 821.848 767.261C813.403 759.248 805.304 750.889 797.897 741.968C808.249 734.735 818.123 726.809 827.175 717.974Z"></path>
<path fill="#5E3148" d="M752.681 723.734C756.536 719.706 765.544 725.033 762.469 730.274C758.528 734.085 749.52 729.018 752.681 723.734Z"></path>
<path fill="#C35271" d="M864.032 742.228C872.824 734.648 881.616 727.155 890.408 719.576C902.232 726.246 913.623 733.565 924.927 741.058C914.272 749.634 903.835 758.512 893.83 767.824C884.215 758.902 874.34 750.283 864.032 742.228Z"></path>
<path fill="#B64972" d="M166.084 751.062C176.046 743.743 186.397 736.987 196.878 730.49C206.796 738.459 216.801 746.428 226.849 754.224C217.191 762.063 207.533 769.859 197.831 777.655C187.35 768.646 176.739 759.854 166.084 751.062Z"></path>
<path fill="#BB4D70" d="M233.692 755.177C242.095 746.905 251.146 739.412 260.285 731.919C267.388 737.809 275.704 742.53 281.334 750.023L281.291 752.188C276.916 761.803 271.069 770.595 266.045 779.864C255.304 771.505 244.607 763.189 233.692 755.177Z"></path>
<path fill="#846C72" d="M273.668 779.475C276.526 765.399 285.925 751.583 299.264 745.562C293.331 756.39 282.114 765.875 283.283 779.345C284.106 799.224 300.304 814.253 315.896 824.517C346.559 842.794 382.767 848.728 417.935 850.98C435.303 852.366 452.54 846.432 469.864 849.204C451.154 860.378 427.16 856.87 406.068 860.898C404.639 861.028 401.78 861.331 400.351 861.504L398.792 859.772C397.579 858.516 395.197 856.004 394.028 854.705C360.419 850.893 325.597 842.361 299.698 819.32C288.09 808.536 276.353 795.586 273.668 779.475Z"></path>
<path fill="#C35372" d="M926.616 742.92C948.964 760.677 974.561 777.742 986.514 804.681C977.203 815.249 965.639 823.694 951.779 826.986C945.153 818.757 938.397 810.614 931.64 802.515C942.338 795.023 953.209 787.487 961.568 777.309C949.008 782.549 938.83 791.688 928.435 800.177C918.127 790.605 908.036 780.86 898.161 770.855C908.382 762.367 918.344 753.401 926.616 742.92Z"></path>
<path fill="#FE7E96" d="M281.334 750.023C281.334 750.543 281.291 751.669 281.291 752.189L281.334 750.023Z"></path>
<path fill="#BC4969" d="M827.998 768.43C839.475 761.544 850.086 753.358 859.875 744.22C869.663 753.272 879.711 762.021 889.889 770.683C878.585 778.175 868.97 790.129 856.02 794.027C846.015 786.231 837.266 777.049 827.998 768.43Z"></path>
<path fill="#B44A70" d="M134.468 775.013C142.437 766.351 152.529 760.158 162.1 753.531C172.928 762.626 183.756 771.721 193.804 781.683C184.665 788.959 175.613 796.365 166.735 803.944C156.08 794.156 143.867 786.057 134.468 775.013Z"></path>
<path fill="#B94E6D" d="M229.318 757.213C240.276 765.572 251.06 774.191 261.844 782.809C252.359 791.601 242.571 800.047 232.523 808.233C222.258 798.791 211.821 789.479 201.296 780.297C210.911 772.935 220.266 765.225 229.318 757.213Z"></path>
<path fill="#D57189" d="M808.205 763.493C817.257 757.906 817.084 778.262 808.162 773.064C808.162 770.682 808.205 765.918 808.205 763.493Z"></path>
<path fill="#C2506F" d="M820.679 769.383C831.81 778.868 842.724 788.613 852.902 799.094C842.984 806.11 833.369 813.56 824.36 821.745C815.785 813.906 807.036 806.24 798.114 798.834C803.788 787.703 811.887 778.175 820.679 769.383Z"></path>
<path fill="#C25270" d="M861.607 797.318C872.391 789.392 883.046 781.293 893.527 772.934C903.098 783.155 913.19 792.814 923.671 802.082C914.013 811.784 903.142 820.229 891.534 827.462C882.136 816.851 872.088 806.803 861.607 797.318Z"></path>
<path fill="#AE4B72" d="M116.884 800.566C118.747 791.514 125.46 784.844 131.003 777.958C141.788 787.66 152.919 796.928 163.053 807.279C155.474 814.036 147.981 820.879 140.488 827.765C130.614 820.965 117.794 814.122 116.884 800.566Z"></path>
<path fill="#B94970" d="M169.463 807.669C178.644 798.877 188.346 790.692 198.567 783.156C208.355 792.641 218.707 801.519 228.278 811.221C218.577 819.103 209.871 828.025 201.729 837.467C192.114 826.379 181.027 816.678 169.463 807.669Z"></path>
<path fill="#B95072" d="M235.945 810.441C246.209 802.212 256.214 793.723 266.045 785.018C282.547 813.429 307.32 837.51 338.85 848.294C315.852 845.826 292.508 847.601 269.683 843.4C276.7 836.297 283.889 829.281 290.169 821.485C281.724 825.989 273.971 831.706 266.782 837.986C256.647 828.631 246.469 819.32 235.945 810.441Z"></path>
<path fill="#B84B69" d="M827.132 824.43C836.877 816.028 846.232 806.327 858.186 801.173C869.663 809.748 879.711 820.056 889.456 830.537C878.238 836.124 866.718 841.148 855.111 845.826C845.366 839.242 836.097 832.01 827.132 824.43Z"></path>
<path fill="#C14B6E" d="M765.415 829.195C776.285 820.793 786.593 811.741 796.771 802.559C804.394 809.618 812.233 816.505 820.116 823.305C810.587 830.321 800.756 836.904 790.535 842.794C782.436 837.77 774.077 833.136 765.415 829.195Z"></path>
<path fill="#C4516E" d="M898.507 829.498C908.815 822.178 917.953 813.429 927.742 805.417C935.364 812.78 941.644 821.355 948.054 829.758C933.026 832.746 918.127 838.116 902.665 837.423C901.625 835.431 899.547 831.49 898.507 829.498Z"></path>
<path fill="#B74A6E" d="M146.941 827.852C153.005 821.356 159.631 815.422 166.561 809.835C176.955 819.45 189.385 827.462 196.272 840.239C179.727 836.514 163.356 832.053 146.941 827.852Z"></path>
<path fill="#BD4C71" d="M231.353 812.52C243.09 822.222 255.304 831.664 264.356 844.094C245.039 844.353 225.766 842.275 206.753 839.156C214.246 829.628 222.605 820.879 231.353 812.52Z"></path>
<path fill="#CF5C7B" d="M822.844 826.293C830.337 832.01 837.483 838.16 844.239 844.743C827.478 845.09 810.717 845.436 794.042 846.909C803.311 839.589 813.142 833.006 822.844 826.293Z"></path>
<path fill="#6E6567" d="M544.141 866.528C562.505 856.913 583.727 860.465 603.65 859.079C602.914 861.417 601.484 866.095 600.748 868.434C582.125 870.946 562.418 871.985 544.141 866.528Z"></path>
</svg>
