<svg xmlns="http://www.w3.org/2000/svg" fill="none" viewBox="0 0 1102 1024" height="1024" width="1102">
<rect fill="white" transform="translate(0.598389)" height="1024" width="1100.6"></rect>
<path fill="#FDFDFD" d="M371.612 205.619C456.652 183.306 546.162 178.233 633.351 189.11C656.524 192.077 679.912 195.043 702.096 202.61C732.406 214.175 754.547 239.111 774.883 263.315C795.863 288.208 810.309 321.269 804.72 354.331C799.26 397.624 777.849 441.735 739.199 464.478C713.833 479.912 683.395 480.772 654.847 484.727C595.26 491.305 532.319 488.167 477.245 515.51C471.011 518.09 465.723 524.753 458.801 524.581C446.376 513.919 435.284 501.15 419.893 494.53C381.845 476.817 340.228 468.648 302.093 451.064C296.547 436.619 285.326 425.312 279.135 411.167C270.408 391.433 266.151 369.98 265.163 348.484C270.709 286.574 309.316 223.332 371.612 205.619ZM387.047 310.779C352.051 313.531 318.688 335.758 304.544 368.131C298.74 383.824 299.772 407.857 317.528 415.208C340.271 422.947 365.335 420.066 387.906 413.059C413.057 405.707 429.566 382.276 437.821 358.587C442.679 345.56 442.679 328.535 430.77 319.163C418.173 310.607 401.836 309.618 387.047 310.779ZM545.431 330.298C531.244 363.23 559.748 405.105 595.561 403.901C592.723 404.116 587.091 404.589 584.254 404.804C602.268 422.99 631.589 423.506 654.933 417.057C667.315 412.672 683.395 406.61 684.856 391.433C700.592 373.935 690.058 348.054 675.656 333.393C651.58 311.639 617.401 307.125 586.188 307.039C569.722 306.437 551.622 314.004 545.431 330.298ZM470.753 375.569C469.42 385.07 481.114 387.65 485.758 394.142C485.371 408.072 471.484 420.023 457.511 417.057C449.644 413.747 451.707 403.643 449.73 396.936C440.013 404.761 445.388 420.066 456.996 422.646C470.925 426.429 481.974 415.595 490.616 406.395C497.237 411.64 503.987 418.605 513.273 417.874C525.268 419.852 537.693 403.815 527.288 394.529C524.021 401.107 523.849 414.735 513.23 412.543C503.471 412.93 498.784 402.74 492.937 396.764C496.162 389.585 513.746 379.052 500.375 373.634C490.487 372.56 480.427 373.548 470.753 375.569Z"></path>
<path fill="#1E1D1D" d="M705.665 195.774C735.717 159.015 800.291 157.897 828.237 197.493C850.98 236.789 845.606 291.045 812.974 323.462C814.694 369.249 801.022 417.314 768.606 450.677C756.826 463.274 740.919 470.625 727.763 481.545C748.012 483.91 768.391 483.136 788.726 483.523C811.899 480.901 813.791 521.443 793.499 526.559C774.969 528.235 756.396 526.086 737.823 526.387C736.877 543.197 741.564 559.362 745.562 575.484C792.381 567.789 844.058 582.191 875.228 619.208C919.983 669.939 921.531 752.7 877.936 804.678C835.287 858.977 750.42 869.21 693.713 831.548C665.639 813.577 644.357 785.589 634.039 753.946C619.078 706.354 631.073 649.99 668.261 615.682C656.653 614.264 645.475 608.073 633.781 608.889C618.347 616.198 604.417 626.387 590.445 636.233C574.537 647.282 561.769 665.124 540.745 666.414C557.125 679.741 579.395 687.523 588.854 707.815C599.086 726.818 590.359 754.118 568.862 760.438C531.158 772.175 490.229 761.384 456.609 742.811C445.001 780.043 418.216 811.213 385.972 832.494C352.696 854.119 310.778 860.955 272.213 852.184C228.705 842.124 191.688 808.891 176.254 767.102C152.092 705.365 175.265 628.021 231.456 591.95C251.319 578.924 274.363 571.443 298.009 569.895C278.232 543.584 267.398 510.995 266.839 478.106C265.593 459.361 268.602 440.144 263.271 421.872C253.512 385.93 254.844 347.409 264.733 311.639C233.434 294.442 224.062 249.729 241.388 219.592C265.034 175.954 334.123 161.122 369.162 198.869C478.793 171.01 595.733 168.086 705.665 195.774ZM371.612 205.619C309.316 223.332 270.709 286.574 265.163 348.483C262.067 373.376 263.271 399.172 271.053 423.161C274.965 437.779 288.379 446.807 302.093 451.064C340.228 468.648 381.845 476.816 419.893 494.529C435.284 501.15 446.376 513.919 458.801 524.581C465.723 524.753 471.011 518.089 477.245 515.51C532.319 488.166 595.26 491.305 654.847 484.727C683.395 480.772 713.833 479.912 739.199 464.477C777.849 441.734 799.26 397.624 804.72 354.33C810.309 321.269 795.863 288.208 774.883 263.315C754.547 239.11 732.406 214.174 702.096 202.609C679.912 195.043 656.524 192.076 633.351 189.11C546.162 178.233 456.652 183.306 371.612 205.619ZM727.978 487.908C726.731 497.797 725.441 507.642 724.066 517.53C745.519 518.089 766.929 520.841 788.382 519.981C806.568 521.658 807.084 486.662 788.511 489.628C768.348 488.596 748.141 488.338 727.978 487.908ZM703.558 582.277C703.042 580.428 702.01 576.817 701.494 575.011C688.425 579.483 675.226 584.298 663.618 591.95C677.72 594.659 691.047 588.941 704.504 585.673L704.117 584.255C706.095 585.115 710.007 586.834 711.985 587.737C712.544 604.977 718.477 621.357 722.561 637.995C726.344 654.204 734.728 669.853 733.008 686.921C736.276 691.091 739.586 695.262 742.853 699.432C749.13 695.692 755.407 691.951 761.727 688.254C751.925 636.19 746.852 582.492 724.066 533.91C718.735 550.635 714.263 567.961 703.558 582.277ZM262.282 602.441C277.329 629.999 289.496 659.234 305.877 686.018C308.413 686.104 313.572 686.233 316.109 686.276C317.227 657.342 320.408 628.279 320.537 599.431C301.878 591.434 280.812 596.594 262.282 602.441ZM753.687 599.861C758.159 629.827 762.114 660.137 771.529 689.071C779.268 680.644 781.762 669.337 784.986 658.761C790.489 639.457 796.336 620.283 803.172 601.409C786.878 598.313 770.111 596.035 753.687 599.861ZM555.449 629.827C554.847 628.838 553.729 626.86 553.17 625.872C548.871 632.879 542.078 637.609 535.672 642.51L532.963 642.381C524.666 647.411 537.908 657.6 541.648 649.088C545.517 652.699 549.473 656.224 553.514 659.664C562.929 653.817 571.528 646.809 579.095 638.683C595.088 625.356 614.047 616.155 629.869 602.57C602.611 601.28 575.913 612.2 555.449 629.827ZM809.191 602.699C799.088 631.504 790.231 660.739 781.203 689.887C783.051 692.037 786.706 696.293 788.554 698.443C811.126 676.689 834.127 655.45 856.354 633.352C843.456 619.337 827.334 608.589 809.191 602.699ZM215.291 638.038C239.41 657.213 265.12 674.238 288.895 693.886C291.388 692.51 296.418 689.716 298.955 688.297C285.24 660.481 270.193 633.309 256.994 605.235C240.743 612.845 226.856 624.367 215.291 638.038ZM326.9 606.181C324.922 632.879 323.718 659.621 322.257 686.319C324.879 687.523 330.21 689.888 332.876 691.048C343.667 673.851 351.492 655.021 359.832 636.577C349.901 625.313 338.723 615.295 326.9 606.181ZM677.462 638.339C694.401 649.346 715.037 659.965 724.109 678.452C725.871 676.259 727.634 674.066 729.397 671.874C720.153 654.29 716.284 634.599 710.48 615.768C696.98 619.165 687.006 628.838 677.462 638.339ZM521.141 636.104C532.405 643.756 543.411 630.644 553.17 625.872C555.234 623.851 559.404 619.81 561.511 617.789C547.022 621.443 533.78 628.365 521.141 636.104ZM337.132 698.873C355.877 690.962 371.139 677.291 388.035 666.371C380.297 658.245 372.601 650.076 364.948 641.908C354.673 660.395 345.086 679.311 337.132 698.873ZM803.688 691.822C798.4 697.024 788.383 702.312 796.465 710.18C825.571 703.172 854.204 694.23 883.568 688.211C880.129 669.982 872.218 653 860.868 638.339C842.166 656.525 823.507 674.797 803.688 691.822ZM192.849 689.931C222.17 696.379 251.405 703.688 281.156 707.858C281.887 705.709 283.434 701.453 284.208 699.303C261.723 678.752 235.713 662.63 212.067 643.499C202.737 657.643 196.589 673.464 192.849 689.931ZM673.205 643.713C663.833 656.74 656.739 671.272 652.999 686.964C681.417 693.499 710.05 698.959 738.339 706.182C725.398 677.764 698.055 660.61 673.205 643.713ZM389.583 669.896C377.502 678.366 366.754 691.048 351.535 693.284C354.2 695.391 356.866 697.497 359.574 699.561C372.988 696.035 386.746 694.101 400.245 691.091L402.352 685.158C402.18 690.704 402.094 696.25 402.051 701.796L400.503 696.68C383.908 700.593 366.926 702.785 350.46 707.171C348.998 704.978 346.118 700.55 344.656 698.314C345.086 708.374 345.86 718.435 346.677 728.452C382.059 735.159 418.087 741.006 454.115 741.737C445.86 730.387 436.66 719.767 428.062 708.675C423.805 704.204 419.42 699.905 414.906 695.778C410.736 693.929 406.694 691.908 402.739 689.716L409.274 687.437C402.524 681.805 396.032 675.872 389.583 669.896ZM299.772 695.004C282.274 701.667 280.167 728.882 295.386 738.856C309.445 746.251 325.997 743.8 340.873 740.662C337.39 728.667 337.347 716.113 335.069 703.946C329.608 690.059 311.466 691.134 299.772 695.004ZM191.172 696.121C189.238 712.932 190.183 729.957 194.01 746.466C223.245 738.942 252.308 730.773 281.887 724.84C281.242 722.562 279.995 718.005 279.35 715.726C250.416 707.472 220.321 703.731 191.172 696.121ZM654.246 742.768C680.729 735.546 707.728 730.387 734.126 722.906C734.685 720.713 735.76 716.328 736.275 714.135C709.706 702.656 680.213 700.593 652.225 693.972C648.184 710.18 650.505 726.775 654.246 742.768ZM744.616 700.636C744.358 711.814 739.973 724.626 747.067 734.6C758.933 743.714 777.505 742.252 787.222 730.601C795.949 718.693 787.953 701.023 774.84 696.422C764.694 691.65 754.289 697.755 744.616 700.636ZM795.82 716.199C798.271 719.81 801.538 722.261 805.623 723.508C831.16 732.106 856.784 740.877 883.482 744.961C886.191 728.366 886.621 711.513 885.589 694.746C855.107 699.303 825.657 708.632 795.82 716.199ZM797.884 726.904C796.336 729.441 793.155 734.471 791.564 736.964C812.157 756.999 834.17 775.4 855.795 794.231C865.984 781.204 874.884 767.059 880.258 751.324C851.969 746.208 825.098 735.933 797.884 726.904ZM195.429 752.313C201.62 767.747 209.745 782.408 220.837 794.918C240.399 775.916 263.658 761.255 283.477 742.553C288.293 739.028 283.176 729.57 277.158 732.45C249.47 736.835 223.03 747.154 195.429 752.313ZM656.051 748.873C662.973 766.414 673.248 782.451 686.662 795.778C704.289 775.615 726.774 758.805 740.575 735.847L738.554 729.742C710.609 733.955 683.652 742.897 656.051 748.873ZM347.149 737.48C365.378 752.313 383.693 767.618 405.147 777.592C410.693 767.489 416.153 757.343 421.226 746.982C396.849 741.737 371.827 740.533 347.149 737.48ZM745.906 741.694C728.408 762.072 709.362 781.032 690.359 799.991C704.246 812.33 720.798 821.23 738.683 826.26C744.057 799.132 749.517 772.003 755.708 745.047C753.258 744.187 748.356 742.51 745.906 741.694ZM775.915 743.284C786.362 770.112 795.863 797.283 805.537 824.368C822.132 819.037 838.899 811.729 849.905 797.627C828.28 779.957 808.503 760.051 786.921 742.381C784.169 742.596 778.666 743.069 775.915 743.284ZM224.965 797.928C235.584 810.439 250.201 818.134 265.034 824.54C271.826 795.477 287.605 769.682 296.031 741.264C272.256 760.008 248.395 778.71 224.965 797.928ZM301.706 747.798C289.582 773.336 278.017 799.433 270.064 826.604C286.186 829.914 302.695 831.075 319.161 829.398C316.281 802.528 314.518 775.486 310.907 748.701C308.585 748.486 303.985 748.013 301.706 747.798ZM318.043 747.326C319.892 774.411 322.214 801.453 324.621 828.496C339.454 825.658 353.598 820.155 366.453 812.244C356.35 797.154 345.774 782.322 337.519 766.156C332.876 757.988 329.609 746.681 318.043 747.326ZM333.865 747.584C344.441 769.381 357.683 789.673 371.053 809.837C381.63 802.055 391.518 793.371 400.331 783.611C382.489 772.691 366.367 759.364 348.998 747.842C345.215 747.799 337.648 747.67 333.865 747.584ZM760.738 748.013C754.676 774.282 750.291 800.98 745.519 827.55C763.189 830.559 781.547 830.989 798.873 825.701C791.435 803.259 783.61 780.903 775.141 758.805C772.561 753.345 769.165 737.996 760.738 748.013Z"></path>
<path fill="#1E1D1D" d="M29.8214 302.524C30.2083 278.276 48.1792 248.525 75.0066 249.6C61.8939 258.414 46.9754 267.227 41.3864 283.005C32.3149 304.201 39.2797 331.329 59.3143 343.668C71.2232 353.255 87.8614 350.977 100.458 358.93C93.8373 359.747 87.1735 360.392 80.5096 360.865C83.7771 377.632 92.5906 394.313 108.541 402.052C129.478 413.488 154.457 410.736 176.383 403.858C176.34 411.51 168.387 412.843 162.883 414.606C142.849 418.948 120.665 418.346 102.737 407.34C85.4968 397.71 74.7916 378.836 73.5448 359.274C49.297 351.321 28.1877 329.394 29.8214 302.524Z"></path>
<path fill="#1E1D1D" d="M387.047 310.779C401.836 309.618 418.174 310.607 430.77 319.162C442.679 328.535 442.679 345.56 437.821 358.587C429.567 382.276 413.057 405.707 387.907 413.058C365.336 420.066 340.271 422.947 317.528 415.208C299.772 407.856 298.74 383.823 304.544 368.131C318.689 335.758 352.051 313.53 387.047 310.779ZM390.615 360.736C389.282 362.327 386.531 365.508 385.155 367.099C391.389 375.268 400.289 370.281 400.117 360.994C397.752 360.951 393.023 360.822 390.615 360.736Z"></path>
<path fill="#252522" d="M106.864 243.839C111.894 235.8 122.298 239.024 129.994 239.583C153.425 243.066 170.106 266.325 169.246 289.455C180.338 294.227 191.344 302.739 192.849 315.594C193.537 323.075 195.687 333.823 186.357 336.789C186.4 321.914 186.099 303.126 169.16 297.58C165.119 298.741 161.078 299.859 156.993 300.977C160.519 288.466 162.324 274.106 153.597 263.143C144.01 246.849 123.889 244.742 106.864 243.839Z"></path>
<path fill="#1E1D1E" d="M545.432 330.298C551.623 314.003 569.723 306.437 586.189 307.039C617.401 307.125 651.581 311.639 675.656 333.393C690.059 348.054 700.592 373.935 684.857 391.433C657.9 407.168 625.484 403.772 595.561 403.901C559.748 405.105 531.244 363.23 545.432 330.298ZM578.665 351.063C578.321 356.007 579.009 360.865 580.729 365.552C583.265 363.617 588.382 359.748 590.918 357.77C587.909 353.385 584.813 348.398 578.665 351.063Z"></path>
<path fill="#C6C5C6" d="M271.053 423.162C263.271 399.172 262.068 373.377 265.163 348.484C266.152 369.98 270.408 391.433 279.136 411.167C285.327 425.312 296.548 436.619 302.094 451.064C288.379 446.808 274.965 437.78 271.053 423.162Z"></path>
<path fill="#E8E7E9" d="M578.664 351.063C584.812 348.398 587.908 353.385 590.917 357.77C588.381 359.748 583.265 363.617 580.728 365.552C579.008 360.866 578.32 356.007 578.664 351.063Z"></path>
<path fill="#E8E7E9" d="M390.615 360.737C393.023 360.823 397.752 360.952 400.116 360.995C400.288 370.281 391.389 375.268 385.155 367.099C386.531 365.509 389.282 362.327 390.615 360.737Z"></path>
<path fill="#E8E7E9" d="M389.583 669.896C396.032 675.872 402.524 681.805 409.274 687.437L402.739 689.716C406.694 691.908 410.735 693.929 414.906 695.778C419.42 699.905 423.805 704.204 428.061 708.676C401.707 705.408 374.278 702.399 348.439 710.567C348.955 709.75 349.944 708.031 350.46 707.171C366.926 702.786 383.908 700.593 400.503 696.681L402.051 701.797C402.094 696.251 402.18 690.705 402.352 685.159L400.245 691.092C386.746 694.101 372.988 696.036 359.574 699.561C356.866 697.497 354.2 695.391 351.535 693.284C366.754 691.049 377.502 678.366 389.583 669.896Z"></path>
<path fill="#212121" d="M470.753 375.569C480.426 373.548 490.487 372.559 500.375 373.634C513.746 379.051 496.162 389.584 492.937 396.764C498.784 402.74 503.47 412.929 513.23 412.542C523.849 414.735 524.021 401.106 527.288 394.528C537.692 403.815 525.268 419.851 513.273 417.873C503.986 418.604 497.236 411.639 490.616 406.394C481.974 415.595 470.925 426.429 456.995 422.646C445.387 420.066 440.013 404.761 449.73 396.936C451.707 403.643 449.644 413.746 457.511 417.056C471.484 420.023 485.371 408.071 485.757 394.141C481.114 387.65 469.42 385.07 470.753 375.569Z"></path>
<path fill="#F3A7C1" d="M595.56 403.901C625.483 403.772 657.9 407.168 684.856 391.433C683.394 406.609 667.315 412.671 654.933 417.056C631.588 423.505 602.267 422.989 584.253 404.804C587.091 404.589 592.723 404.116 595.56 403.901Z"></path>
<path fill="#F3A7C1" d="M334.33 422.035C363.761 416.626 396.267 414.247 420.023 394C421.263 409.196 406.506 418.001 395.093 424.503C373.253 434.972 344.301 439.64 323.36 424.919C326.115 424.207 331.575 422.747 334.33 422.035Z"></path>
<path fill="#2E79AA" d="M727.978 487.909C748.142 488.339 768.348 488.597 788.512 489.628C807.084 486.662 806.568 521.658 788.383 519.981C766.929 520.841 745.519 518.089 724.066 517.531C725.441 507.642 726.731 497.797 727.978 487.909Z"></path>
<path fill="#5682BA" d="M703.558 582.277C714.263 567.961 718.734 550.635 724.065 533.911C746.851 582.492 751.925 636.19 761.727 688.254C755.407 691.951 749.13 695.692 742.853 699.432C739.586 695.262 736.275 691.092 733.008 686.921C734.728 669.853 726.344 654.204 722.561 637.996C718.476 621.358 712.543 604.977 711.984 587.737C710.007 586.835 706.094 585.115 704.117 584.255L703.558 582.277Z"></path>
<path fill="#FAFAFA" d="M663.618 591.95C675.226 584.298 688.425 579.482 701.495 575.011C702.011 576.817 703.043 580.428 703.558 582.277L704.117 584.255L704.504 585.673C691.048 588.941 677.72 594.659 663.618 591.95Z"></path>
<path fill="#FAFAFA" d="M656.052 748.873C683.653 742.897 710.609 733.955 738.555 729.742L740.575 735.847C726.775 758.805 704.289 775.615 686.663 795.778C673.249 782.451 662.974 766.414 656.052 748.873Z"></path>
<path fill="#F7F7F7" d="M262.282 602.44C280.812 596.593 301.878 591.434 320.537 599.431C320.408 628.279 317.227 657.342 316.109 686.276C313.572 686.233 308.413 686.104 305.877 686.018C289.497 659.234 277.33 629.999 262.282 602.44Z"></path>
<path fill="#FDFCFA" d="M753.688 599.861C770.111 596.035 786.878 598.314 803.172 601.409C796.337 620.283 790.49 639.457 784.987 658.761C781.762 669.337 779.269 680.644 771.53 689.071C762.115 660.137 758.159 629.827 753.688 599.861Z"></path>
<path fill="#2D659E" d="M555.449 629.827C575.914 612.2 602.612 601.28 629.869 602.569C614.048 616.155 595.088 625.355 579.095 638.683C572.775 638.167 566.455 637.694 560.178 637.178C558.975 635.373 556.61 631.675 555.449 629.827Z"></path>
<path fill="#F9F8F8" d="M809.191 602.698C827.334 608.588 843.456 619.337 856.354 633.352C834.127 655.45 811.126 676.689 788.554 698.443C786.706 696.293 783.051 692.037 781.203 689.887C790.231 660.738 799.088 631.504 809.191 602.698Z"></path>
<path fill="#F5F5F6" d="M215.292 638.038C226.857 624.367 240.743 612.845 256.994 605.235C270.193 633.309 285.24 660.48 298.955 688.297C296.419 689.715 291.388 692.51 288.895 693.886C265.12 674.238 239.41 657.213 215.292 638.038Z"></path>
<path fill="#F6F6F7" d="M326.9 606.181C338.723 615.296 349.901 625.313 359.833 636.577C351.492 655.021 343.667 673.851 332.876 691.048C330.211 689.888 324.88 687.523 322.257 686.319C323.719 659.621 324.923 632.88 326.9 606.181Z"></path>
<path fill="#FDFDFC" d="M677.462 638.34C687.006 628.839 696.98 619.165 710.48 615.769C716.284 634.6 720.153 654.29 729.397 671.874C727.634 674.067 725.871 676.259 724.109 678.452C715.037 659.965 694.401 649.346 677.462 638.34Z"></path>
<path fill="#417CB1" d="M521.141 636.104C533.78 628.365 547.022 621.443 561.511 617.789C559.404 619.809 555.234 623.851 553.17 625.871C543.411 630.644 532.405 643.756 521.141 636.104Z"></path>
<path fill="#3C74AC" d="M553.17 625.872C553.729 626.861 554.847 628.838 555.448 629.827C556.609 631.676 558.974 635.373 560.178 637.179C566.455 637.695 572.775 638.168 579.094 638.684C571.528 646.809 562.929 653.817 553.514 659.664C549.473 656.225 545.517 652.699 541.648 649.088C540.143 647.454 537.177 644.144 535.672 642.51C542.078 637.609 548.871 632.88 553.17 625.872Z"></path>
<path fill="#F5F2F2" d="M337.132 698.873C345.086 679.312 354.673 660.395 364.949 641.908C372.601 650.077 380.297 658.245 388.036 666.371C371.139 677.291 355.877 690.963 337.132 698.873Z"></path>
<path fill="#5A94C3" d="M532.963 642.381L535.672 642.51C537.177 644.143 540.143 647.454 541.648 649.087C537.907 657.6 524.666 647.411 532.963 642.381Z"></path>
<path fill="#F9F8F7" d="M803.688 691.823C823.508 674.798 842.166 656.526 860.868 638.34C872.218 653 880.129 669.982 883.568 688.211C854.204 694.23 825.571 703.173 796.465 710.18C788.383 702.313 798.4 697.025 803.688 691.823Z"></path>
<path fill="#F8F8F9" d="M192.85 689.931C196.59 673.464 202.738 657.643 212.067 643.499C235.713 662.63 261.724 678.752 284.209 699.303C283.435 701.453 281.887 705.709 281.156 707.858C251.406 703.688 222.171 696.379 192.85 689.931Z"></path>
<path fill="#F8F8F9" d="M673.206 643.713C698.056 660.609 725.399 677.764 738.34 706.182C710.051 698.959 681.418 693.499 653 686.964C656.74 671.272 663.834 656.74 673.206 643.713Z"></path>
<path fill="#295FA8" d="M299.772 695.003C311.466 691.134 329.608 690.059 335.069 703.946C337.347 716.113 337.39 728.667 340.873 740.661C325.997 743.8 309.445 746.251 295.386 738.856C280.167 728.882 282.274 701.667 299.772 695.003Z"></path>
<path fill="#FCFCFA" d="M191.173 696.122C220.322 703.731 250.417 707.472 279.351 715.726C279.996 718.005 281.242 722.562 281.887 724.841C252.308 730.774 223.245 738.942 194.01 746.466C190.184 729.957 189.238 712.932 191.173 696.122Z"></path>
<path fill="#FEFEFD" d="M654.246 742.768C650.505 726.775 648.184 710.18 652.225 693.972C680.213 700.593 709.706 702.656 736.275 714.135C735.759 716.328 734.685 720.713 734.126 722.906C707.728 730.386 680.729 735.545 654.246 742.768Z"></path>
<path fill="#3A6EAF" d="M744.616 700.635C754.29 697.755 764.694 691.65 774.84 696.422C787.953 701.022 795.95 718.692 787.222 730.601C777.506 742.252 758.933 743.714 747.067 734.6C739.973 724.625 744.358 711.814 744.616 700.635Z"></path>
<path fill="#FAFAF8" d="M795.821 716.199C825.657 708.632 855.107 699.303 885.589 694.746C886.621 711.513 886.191 728.366 883.482 744.961C856.784 740.877 831.16 732.106 805.623 723.508C801.539 722.261 798.271 719.81 795.821 716.199Z"></path>
<path fill="#2F5995" d="M344.656 698.314C346.118 700.55 348.998 704.978 350.46 707.17C349.944 708.03 348.955 709.75 348.439 710.567C374.278 702.398 401.707 705.408 428.061 708.675C436.66 719.767 445.86 730.386 454.115 741.737C418.087 741.006 382.059 735.159 346.676 728.452C345.86 718.434 345.086 708.374 344.656 698.314Z"></path>
<path fill="#F9F9F8" d="M797.884 726.904C825.098 735.933 851.969 746.208 880.258 751.324C874.884 767.059 865.984 781.204 855.795 794.231C834.17 775.4 812.158 756.999 791.564 736.965C793.155 734.471 796.336 729.441 797.884 726.904Z"></path>
<path fill="#F9F9F8" d="M775.915 743.285C778.667 743.07 784.17 742.597 786.921 742.382C808.503 760.052 828.28 779.957 849.905 797.627C838.899 811.729 822.132 819.038 805.537 824.369C795.864 797.283 786.362 770.112 775.915 743.285Z"></path>
<path fill="#F9F8F9" d="M195.429 752.313C223.03 747.154 249.471 736.836 277.158 732.451C283.177 729.57 288.293 739.028 283.478 742.554C263.658 761.256 240.399 775.916 220.838 794.919C209.746 782.408 201.62 767.747 195.429 752.313Z"></path>
<path fill="#F9F8F9" d="M745.907 741.694C748.357 742.51 753.258 744.187 755.709 745.047C749.518 772.003 744.058 799.132 738.684 826.26C720.799 821.23 704.247 812.33 690.36 799.992C709.363 781.032 728.409 762.072 745.907 741.694Z"></path>
<path fill="#F9F8F9" d="M301.707 747.799C303.986 748.014 308.586 748.487 310.907 748.702C314.519 775.486 316.282 802.529 319.162 829.399C302.696 831.076 286.187 829.915 270.064 826.605C278.018 799.433 289.583 773.337 301.707 747.799Z"></path>
<path fill="#F3F2F2" d="M347.15 737.48C371.827 740.533 396.849 741.737 421.226 746.982C416.153 757.343 410.693 767.489 405.147 777.593C383.693 767.618 365.379 752.313 347.15 737.48Z"></path>
<path fill="#F8F8F8" d="M224.965 797.928C248.396 778.71 272.257 760.009 296.032 741.264C287.605 769.682 271.827 795.478 265.034 824.541C250.201 818.135 235.584 810.439 224.965 797.928Z"></path>
<path fill="#F8F8F7" d="M318.044 747.326C329.609 746.681 332.876 757.988 337.52 766.157C345.774 782.322 356.35 797.154 366.454 812.245C353.599 820.155 339.454 825.658 324.622 828.496C322.214 801.454 319.893 774.411 318.044 747.326Z"></path>
<path fill="#F9F9F9" d="M333.865 747.584C337.648 747.67 345.215 747.799 348.998 747.842C366.367 759.364 382.489 772.691 400.331 783.611C391.518 793.371 381.63 802.055 371.053 809.837C357.683 789.673 344.441 769.381 333.865 747.584Z"></path>
<path fill="#FAFCFC" d="M760.738 748.014C769.165 737.996 772.561 753.345 775.141 758.805C783.61 780.903 791.435 803.259 798.873 825.701C781.547 830.989 763.189 830.559 745.519 827.55C750.291 800.98 754.677 774.282 760.738 748.014Z"></path>
</svg>
