<svg xmlns="http://www.w3.org/2000/svg" fill="none" viewBox="0 0 1101 1024" height="1024" width="1101">
<rect fill="white" height="1024" width="1100.6"></rect>
<path fill="#FDFDFD" d="M606.48 313.574C647.078 284.668 699.288 290.715 746.135 290.594L745.046 292.973C796.006 298.819 846.602 322.766 877.807 364.453C910.1 405.051 921.59 456.777 933.362 506.083C917.478 506.002 901.795 509.631 887.523 516.444C885.507 488.022 866.518 461.373 840.555 449.842C828.057 444.803 810.882 445.045 802.698 457.341C788.305 477.499 790.724 504.873 798.022 527.329C804.15 546.762 820.276 561.961 839.869 567.404C841.281 569.782 844.022 574.539 845.433 576.958C817.736 586.029 787.741 587.078 759.399 580.426C725.533 572.564 692.998 559.905 659.012 552.325C660.221 557.244 661.431 562.162 662.64 567.121C632.081 541.037 608.415 508.341 583.903 476.814C566.971 450.124 549.191 423.959 531.17 398.036C548.264 364.533 576.122 335.95 606.48 313.574ZM625.267 393.561C599.788 400.455 575.639 422.508 576.888 450.649C580.194 479.192 610.31 502.011 638.814 495.44C666.309 489.473 684.209 463.751 692.515 438.433C695.861 425.854 696.748 409.405 685.459 400.415C668.567 387.272 644.942 389.409 625.267 393.561ZM709.004 494.109C711.423 503.1 717.591 510.074 724.122 516.364C717.752 529.305 700.699 535.231 688.402 526.644C679.412 521.726 678.928 510.76 676.308 502.092C666.793 514.388 678.686 530.595 691.224 534.828C702.594 539.505 714.729 534.707 724.203 528.176C729.807 544.907 750.57 556.317 766.656 546.439C774.154 542.972 774.437 534.224 775.404 527.209C768.51 533.982 763.229 545.835 751.618 543.537C738.152 543.617 732.992 529.99 730.331 519.105C738.515 517.089 752.424 513.904 749.158 502.576C738.555 492.98 722.59 490.803 709.004 494.109Z"></path>
<path fill="#A26A69" d="M622.244 534.586C656.029 572.322 677.799 627.152 660.302 677.224C677.557 702.825 701.586 731.006 735.37 730.32C751.537 731.933 763.108 715.766 763.39 701.011C764.882 673.475 746.417 649.93 726.783 632.715C709.407 617.274 686.024 612.961 665.059 604.535C708.278 607.437 748.634 635.417 764.317 676.055C768.671 690.73 770.203 708.509 760.729 721.572C749.36 735.602 729.041 730.401 713.479 733.788C714.003 734.271 715.091 735.239 715.656 735.723C714.205 735.4 711.342 734.755 709.891 734.433L707.673 733.022C708.963 732.175 711.584 730.482 712.914 729.595C686.669 721.814 669.938 698.672 655.706 676.902C662.157 657.389 664.455 636.465 659.939 616.266C654.9 586.029 636.233 561.034 622.244 534.586Z"></path>
<path fill="#FACFD1" d="M246.66 621.387C252.345 626.104 258.231 630.579 264.077 635.135C257.545 633.321 251.014 631.466 244.483 629.894C245.007 627.757 246.096 623.524 246.66 621.387Z"></path>
<path fill="#FEFDFE" d="M821.646 497.416C828.903 496.327 832.532 508.704 831.927 514.873C822.493 517.977 811.164 502.415 821.646 497.416Z"></path>
<path fill="#2E1923" d="M242.669 512.736C249.039 514.308 255.328 516.163 261.456 518.622C287.984 534.184 315.681 549.705 333.823 575.427C342.007 590.465 350.877 605.221 356.723 621.387C357.489 628.08 357.569 634.933 359.263 641.586C371.075 660.615 394.055 668.194 415.06 671.701C410.464 659.042 405.908 646.464 401.433 633.805C403.489 633.845 407.602 633.885 409.658 633.885C410.827 641.061 413.044 647.955 415.383 654.849C419.172 663.275 420.825 674.927 430.058 679.241C442.555 682.426 452.151 671.702 461.706 665.614C462.794 660.857 463.883 656.18 465.334 651.544L469.487 643.44C470.132 652.995 470.817 662.63 470.817 672.266C476.461 672.145 482.105 672.064 487.75 671.984C488.314 666.581 488.879 661.179 489.483 655.817C495.289 664.162 501.417 672.387 508.633 679.604C519.357 687.788 532.904 689.441 545.805 691.416C547.7 691.819 551.449 692.585 553.304 692.988C544.313 694.722 535.081 698.31 525.848 696.053C513.068 693.311 503.957 683.192 494.361 675.169C483.436 680.773 471.664 680.652 460.94 674.483C452.07 680.369 442.717 685.973 431.872 687.143C416.068 674.806 394.459 677.91 377.929 667.267C368.495 661.784 360.714 654.043 352.893 646.625C343.459 654.245 333.138 662.752 320.116 661.542C302.982 662.872 289.839 650.778 275.002 644.65C263.19 641.505 250.974 640.699 239.04 638.441C227.268 656.462 218.399 678.515 223.317 700.286C228.437 717.622 247.386 724.798 263.593 727.7C305.683 734.715 348.66 733.063 391.112 731.853C461.101 731.974 531.049 729.757 600.997 729.273C605.916 731.369 610.794 733.667 615.753 735.844C549.473 737.659 483.154 737.578 416.834 738.505C371.196 738.989 325.357 741.287 279.8 736.933C260.932 734.675 240.331 731.45 225.776 718.186C214.569 707.502 213.399 690.69 216.181 676.338C219.769 654.688 232.912 636.506 239.847 616.025C244.927 601.269 240.29 585.627 238.073 570.791L243.072 565.751C246.176 577.241 248.111 589.014 249.603 600.826C249.563 615.017 262.061 623.766 271.535 632.353C288.589 646.746 311.448 660.413 334.347 651.503C336.968 649.971 339.588 648.399 342.128 646.746C346.523 640.819 352.973 634.248 350.071 626.225C341.604 596.956 323.22 570.71 299.837 551.358C282.38 536.119 258.392 529.951 242.669 512.736ZM246.66 621.387C246.096 623.524 245.007 627.757 244.483 629.894C251.014 631.466 257.545 633.321 264.077 635.135C258.231 630.579 252.345 626.104 246.66 621.387Z"></path>
<path fill="#F8BA6E" d="M288.145 282.692C343.741 275.839 399.982 278.056 455.9 276.968C456.948 278.983 459.045 283.055 460.093 285.071L461.786 288.296L465.334 288.216C467.833 288.095 472.873 287.934 475.373 287.853C476.864 284.305 478.356 280.798 479.888 277.33C505.569 277.209 531.331 278.701 557.012 277.33C539.354 298.738 534.919 331.273 553.384 353.648C542.902 365.824 532.662 378.282 522.824 391.062C488.516 355.301 434.734 352.439 388.572 358.486C323.059 367.437 264.238 405.495 223.962 457.22C208.844 474.032 193.604 490.723 178.687 507.736C181.55 463.429 178.566 418.799 184.211 374.693C191.548 324.298 239.645 288.619 288.145 282.692Z"></path>
<path fill="#301925" d="M565.237 269.832L569.228 268.945L575.517 267.615C566.728 277.452 555.883 286.402 551.449 299.303C546.369 314.26 547.981 330.387 550.924 345.626C559.23 327.524 550.562 304.302 565.479 288.901C584.467 262.252 627.122 263.381 648.167 286.886C648.247 283.781 648.409 277.573 648.529 274.468C650.545 277.935 652.561 281.483 654.537 285.031L658.084 284.467C669.333 283.015 680.379 280.435 691.305 277.411C722.953 271.283 755.649 273.057 787.579 276C824.71 279.629 863.494 298.214 880.145 333.249C898.569 332.241 918.082 334.458 933.604 345.303C954.649 358.567 967.227 385.74 959.89 410.172C955.536 427.951 941.707 441.296 926.75 450.851C932.072 469.194 937.877 487.498 940.982 506.406C972.992 514.429 996.739 547.73 988.272 580.829C986.781 579.499 983.757 576.838 982.265 575.508C983.797 557.244 978.637 537.328 963.236 526.121C923.444 494.755 855.27 529.184 855.552 579.459C853.335 618.847 881.475 653.035 876.637 692.666C876.033 706.696 869.461 722.217 854.988 726.693C829.427 734.554 802.133 732.619 775.726 733.143C755.407 731.652 735.652 743.666 715.656 735.723C715.091 735.24 714.003 734.272 713.479 733.788C729.041 730.402 749.36 735.602 760.729 721.572C770.203 708.51 768.671 690.731 764.317 676.056C748.634 635.417 708.278 607.438 665.059 604.535C686.023 612.961 709.407 617.275 726.783 632.716C746.417 649.931 764.881 673.475 763.39 701.011C763.107 715.767 751.537 731.934 735.37 730.321C701.585 731.006 677.557 702.825 660.302 677.225C677.799 627.152 656.028 572.323 622.243 534.587C636.233 561.034 654.899 586.03 659.939 616.267C664.454 636.465 662.156 657.389 655.706 676.902C669.937 698.673 686.668 721.814 712.914 729.595C711.584 730.482 708.963 732.176 707.673 733.022L704.085 732.982C674.614 733.466 645.264 737.014 615.753 735.844C610.794 733.667 605.915 731.369 600.997 729.273C629.339 727.902 657.923 730.079 686.104 726.209C686.306 725.483 686.749 723.991 686.951 723.266C675.783 711.614 664.051 700.487 654.698 687.264C625.509 710.768 586.443 700.124 553.303 692.988C551.449 692.585 547.699 691.819 545.804 691.416C555.964 681.135 556.206 666.017 558.705 652.672C563.019 621.75 570.518 590.868 568.543 559.462C566.204 515.114 550.884 473.065 538.91 430.773C533.024 406.987 513.028 390.014 493.474 376.992C487.185 374.089 480.815 371.307 474.163 369.412C456.061 364.091 437.032 363.647 418.325 363.365C410.706 363.405 403.086 363.809 395.506 364.494C379.138 366.228 362.971 369.896 347.409 375.218C344.99 376.065 340.153 377.677 337.734 378.483C320.801 385.055 304.795 393.925 289.919 404.286C285.847 407.068 281.815 409.93 277.824 412.873C266.374 421.178 256.295 431.217 246.942 441.86C242.91 446.376 238.758 450.81 234.565 455.205C231.743 458.067 228.961 460.97 226.139 463.913C225.615 462.26 224.526 458.874 223.962 457.221C264.238 405.495 323.059 367.437 388.572 358.487C434.734 352.439 488.515 355.302 522.824 391.062C532.661 378.282 542.902 365.824 553.384 353.649C534.919 331.273 539.354 298.738 557.012 277.331C531.331 278.701 505.569 277.21 479.888 277.331L482.186 272.372C509.762 268.501 537.781 274.67 565.237 269.832ZM695.054 283.217C713.277 285.112 731.621 284.87 749.924 285.555L746.134 290.595L751.174 287.45C789.998 291.28 827.694 307.769 858.011 332.362C862.083 336.192 867.566 337.039 872.969 337.2C862.486 310.349 834.789 294.626 808.382 286.886C771.332 278.943 732.508 277.008 695.054 283.217ZM606.48 313.575C576.122 335.95 548.264 364.534 531.17 398.037C549.191 423.96 566.97 450.125 583.903 476.814C608.415 508.341 632.081 541.037 662.64 567.122C694.328 593.206 730.008 615.34 755.488 648.117C760.487 653.076 764.196 661.058 771.896 661.945C788.063 664.283 804.673 664.082 820.719 660.978C835.475 657.591 851.44 647.714 854.302 631.789C850.472 610.421 846.037 588.893 848.134 567.041C846.078 567.122 841.925 567.323 839.869 567.404C820.276 561.961 804.149 546.762 798.021 527.33C790.724 504.874 788.305 477.499 802.698 457.341C810.882 445.045 828.057 444.803 840.555 449.843C866.518 461.373 885.507 488.022 887.523 516.445C901.794 509.631 917.477 506.003 933.362 506.084C921.59 456.777 910.1 405.052 877.806 364.454C846.602 322.767 796.005 298.819 745.046 292.973L746.134 290.595C699.287 290.716 647.078 284.668 606.48 313.575ZM821.646 497.416C811.164 502.415 822.493 517.977 831.927 514.872C832.532 508.704 828.903 496.327 821.646 497.416ZM837.813 661.582C817.05 673.516 792.095 671.863 769.155 669.847C775.041 688.392 775.888 708.712 765.849 726.007C789.394 726.894 812.978 726.33 836.442 723.991C847.408 722.701 860.592 720 865.429 708.631C874.783 686.78 868.413 662.066 861.64 640.376C853.415 647.109 847.529 656.664 837.813 661.582Z"></path>
<path fill="#AED9E0" d="M246.942 441.86C256.296 431.217 266.375 421.178 277.824 412.873C291.411 426.782 310.077 433.636 324.994 445.811C357.771 470.485 382.646 505.358 395.305 544.384C404.094 573.411 406.916 603.809 409.658 633.885C407.602 633.885 403.489 633.845 401.433 633.805C405.908 646.464 410.464 659.042 415.06 671.701C394.055 668.194 371.075 660.615 359.263 641.586C357.569 634.933 357.489 628.08 356.723 621.387C356.561 618.928 356.199 614.05 356.037 611.631C358.416 612.921 363.254 615.541 365.673 616.831C370.672 576.153 357.126 534.869 332.573 502.616C310.279 475.08 280.405 453.673 246.942 441.86Z"></path>
<path fill="#EFA07C" d="M555.117 201.698C564.35 197.021 563.906 181.621 573.703 179C578.944 185.249 582.935 192.465 588.418 198.553C596.401 204.117 605.795 207.181 614.301 211.777C602.65 220.566 590.716 229.758 584.709 243.546C582.331 251.085 573.905 251.286 567.535 253.101C565.277 245.521 564.148 237.458 560.036 230.604C552.779 223.146 543.829 217.623 536.451 210.325C542.7 207.463 549.07 204.963 555.117 201.698Z"></path>
<path fill="#EFA16F" d="M662.076 254.27C671.51 250.561 678.242 243.183 682.959 234.434C686.023 238.506 689.128 242.618 692.192 246.731C696.627 248.464 701.061 250.238 705.536 252.052C698.642 259.148 691.748 266.888 691.305 277.411C680.379 280.435 669.333 283.015 658.084 284.466C666.712 281.483 675.582 279.145 684.532 277.129C676.549 269.993 668.809 262.615 662.076 254.27Z"></path>
<path fill="#38242B" d="M569.228 268.945C580.114 255.761 599.022 254.915 614.705 257.293C627.203 259.349 640.991 263.462 648.53 274.468C648.409 277.572 648.248 283.781 648.167 286.885C627.122 263.381 584.468 262.252 565.479 288.901C550.562 304.302 559.23 327.524 550.925 345.626C547.982 330.386 546.369 314.26 551.449 299.303C555.884 286.401 566.729 277.451 575.518 267.614L569.228 268.945Z"></path>
<path fill="#D5A885" d="M452.997 271.807C455.86 269.308 458.722 266.848 461.625 264.389C463.681 270.437 465.818 270.517 468.035 264.631C476.179 267.735 484.605 270.598 493.474 270.437C517.382 270.437 541.329 271.001 565.237 269.832C537.782 274.67 509.762 268.501 482.186 272.372L479.888 277.331C478.356 280.798 476.864 284.305 475.372 287.853C472.873 287.934 467.833 288.095 465.334 288.216C466.503 281.765 464.769 280.717 460.093 285.071C459.044 283.055 456.948 278.984 455.9 276.968C455.174 275.678 453.723 273.097 452.997 271.807Z"></path>
<path fill="#AD7A61" d="M461.625 264.389C463.238 264.47 466.422 264.591 468.035 264.631C465.818 270.517 463.681 270.437 461.625 264.389Z"></path>
<path fill="#1E0E14" d="M288.266 276.201C342.894 270.235 398.168 270.799 452.997 271.807C453.723 273.097 455.174 275.677 455.9 276.967C399.982 278.056 343.741 275.838 288.145 282.692C239.645 288.619 191.548 324.298 184.211 374.693C178.566 418.799 181.55 463.429 178.687 507.736C193.604 490.723 208.844 474.032 223.962 457.22C224.527 458.873 225.615 462.26 226.139 463.912C222.793 467.501 219.487 471.089 216.181 474.798C205.981 486.248 195.902 497.859 185.38 509.066C195.378 512.977 205.135 517.452 214.689 522.29C226.059 533.619 235.089 547.084 241.943 561.558L243.072 565.751L238.073 570.79C232.066 552.648 221.906 534.99 205.175 524.911C179.937 507.615 141.314 515.477 124.946 541.319C113.214 558.413 113.819 583.006 127.163 599.052C136.436 611.429 151.756 616.226 165.827 620.903C169.092 663.477 169.052 706.211 171.39 748.866C172.68 765.033 170.302 781.764 174.938 797.568C228.639 800.349 282.541 798.656 336.323 799.341C515.044 799.866 693.764 799.422 872.485 799.341C888.208 798.616 904.899 802.244 919.856 796.237C923.727 789.303 923.122 780.957 924.049 773.378C926.508 728.909 928.726 684.401 930.58 639.892C931.024 633.441 931.145 626.829 933.362 620.701C943.804 614.654 955.979 611.509 965.292 603.527C974.001 596.431 978.597 585.828 982.265 575.507C983.757 576.838 986.781 579.498 988.273 580.829C980.935 602.922 961.1 618.686 938.966 624.451C934.693 679.845 934.128 735.481 929.492 790.835C923.807 810.751 898.166 805.107 882.483 805.792C881.596 815.387 881.677 825.426 878.089 834.578C868.978 845.665 850.916 845.826 839.426 838.609C828.621 831.231 829.871 816.758 828.621 805.389C640.991 806.8 453.32 805.469 265.689 805.026C263.512 818.29 264.762 836.755 249.724 842.802C238.274 845.503 222.47 845.382 215.939 833.691C212.391 824.297 213.762 813.976 213.037 804.22C197.676 802.204 170.624 812.525 165.585 791.439C163.891 736.529 161.271 681.619 159.86 626.668C146.273 621.548 132.122 615.944 122.769 604.293C102.853 582.28 107.046 544.706 129.703 526.201C141.274 515.275 157.038 510.961 172.277 508.22C174.172 461.614 171.269 414.606 178.324 368.323C188.605 317.283 238.476 282.168 288.266 276.201ZM219.85 805.066C220.172 813.775 219.608 822.684 221.463 831.312C228.719 841.069 246.176 841.391 253.917 832.159C258.11 823.612 258.432 813.815 260.085 804.663C246.7 804.421 233.275 804.542 219.85 805.066ZM834.185 804.744C835.596 814.137 833.459 825.869 841.442 832.844C850.472 838.367 863.414 839.335 872.364 833.167C875.751 824.136 875.468 814.339 876.234 804.945C862.204 804.784 848.174 804.744 834.185 804.744Z"></path>
<path fill="#9C6F61" d="M460.093 285.071C464.769 280.717 466.503 281.765 465.334 288.216L461.786 288.296L460.093 285.071Z"></path>
<path fill="#F6C370" d="M695.054 283.217C732.508 277.008 771.332 278.943 808.383 286.886C834.79 294.626 862.487 310.35 872.969 337.2C867.566 337.039 862.083 336.192 858.012 332.362C827.694 307.769 789.998 291.28 751.174 287.45L746.135 290.595L749.924 285.555C731.621 284.87 713.277 285.112 695.054 283.217Z"></path>
<path fill="#E0DDE0" d="M659.012 552.326C692.998 559.905 725.533 572.564 759.398 580.426C787.741 587.078 817.736 586.03 845.433 576.959C844.022 574.54 841.28 569.782 839.869 567.404C841.925 567.323 846.078 567.122 848.134 567.041C846.038 588.892 850.472 610.421 854.302 631.789C851.44 647.713 835.475 657.591 820.719 660.977C804.673 664.082 788.063 664.283 771.896 661.945C764.196 661.058 760.487 653.075 755.488 648.117C730.008 615.34 694.328 593.206 662.64 567.122C661.431 562.163 660.221 557.244 659.012 552.326Z"></path>
<path fill="#B0DAE2" d="M347.409 375.218C362.971 369.896 379.138 366.227 395.506 364.494C406.311 382.273 423.203 394.811 436.588 410.414C468.236 445.69 489.201 489.554 501.658 534.99C511.616 576.274 511.657 619.129 513.108 661.381C511.092 652.31 509.641 643.118 508.391 633.966C505.932 637.352 503.513 640.82 500.812 644.085C491.499 646.222 484.443 639.489 477.751 634.248C475.413 636.344 473.074 638.521 470.776 640.739C477.751 620.057 473.115 598.044 471.502 576.919C463.076 495.44 414.576 420.936 347.409 375.218Z"></path>
<path fill="#B0DAE2" d="M249.603 600.826C261.698 607.357 271.696 616.912 280.566 627.314C288.75 635.78 296.853 647.431 310.157 646.665C318.342 647.512 326.405 649.245 334.347 651.503C311.448 660.413 288.588 646.746 271.535 632.353C262.061 623.766 249.563 615.017 249.603 600.826Z"></path>
<path fill="#F6F9F9" d="M395.507 364.494C403.086 363.809 410.706 363.406 418.325 363.365C424.212 372.315 430.662 380.903 438.121 388.643C458.279 409.446 475.977 432.83 489.12 458.713C511.052 502.536 528.106 550.109 528.509 599.617C528.549 625.701 530.444 651.745 530.001 677.83C524.921 674.887 519.801 672.105 514.882 668.96C514.439 667.065 513.552 663.276 513.108 661.381C511.657 619.13 511.617 576.274 501.659 534.99C489.201 489.554 468.237 445.69 436.589 410.414C423.204 394.812 406.311 382.274 395.507 364.494Z"></path>
<path fill="#AFD9E0" d="M418.325 363.365C437.032 363.647 456.061 364.091 474.163 369.413C468.398 369.332 462.673 369.372 456.948 369.493C478.033 386.466 497.788 405.455 511.778 428.838C526.856 450.407 536.25 475.242 550.884 497.093C548.143 473.71 538.507 451.98 529.315 430.612C521.05 412.107 507.383 396.505 491.378 384.289C491.902 382.475 492.95 378.806 493.474 376.992C513.028 390.014 533.024 406.987 538.91 430.774C550.884 473.065 566.204 515.115 568.543 559.462C570.518 590.868 563.019 621.75 558.706 652.673C556.206 666.017 555.964 681.136 545.804 691.416C532.903 689.441 519.357 687.788 508.633 679.604C510.205 676.943 513.31 671.621 514.882 668.96C519.801 672.105 524.921 674.887 530.001 677.83C530.444 651.745 528.549 625.701 528.509 599.617C528.106 550.109 511.052 502.536 489.12 458.713C475.977 432.83 458.278 409.446 438.12 388.643C430.662 380.903 424.211 372.315 418.325 363.365Z"></path>
<path fill="#AFD9E0" d="M289.919 404.286C304.796 393.925 320.801 385.055 337.734 378.484C337.976 394.61 355.674 399.287 365.511 408.963C416.35 454.52 452.231 518.945 455.739 587.966C459.488 608.97 452.755 632.877 465.334 651.544C463.882 656.18 462.794 660.857 461.705 665.614C452.15 671.702 442.555 682.426 430.057 679.241C420.825 674.927 419.172 663.276 415.382 654.85C417.68 650.052 419.575 645.174 421.107 640.175C430.42 545.11 379.864 442.586 289.919 404.286Z"></path>
<path fill="#F8FCF9" d="M456.948 369.493C462.673 369.372 468.398 369.332 474.163 369.412C480.815 371.307 487.185 374.089 493.474 376.992C492.95 378.806 491.902 382.475 491.378 384.289C507.383 396.505 521.05 412.107 529.315 430.612C538.507 451.979 548.143 473.71 550.884 497.093C536.25 475.242 526.856 450.407 511.778 428.838C497.788 405.455 478.033 386.466 456.948 369.493Z"></path>
<path fill="#F9FAFA" d="M337.734 378.483C340.153 377.677 344.991 376.064 347.41 375.218C414.576 420.936 463.076 495.44 471.502 576.919C473.115 598.044 477.751 620.057 470.777 640.739C470.454 641.424 469.809 642.755 469.486 643.44L465.334 651.543C452.755 632.877 459.488 608.97 455.739 587.965C452.231 518.944 416.35 454.519 365.511 408.962C355.674 399.286 337.976 394.61 337.734 378.483Z"></path>
<path fill="#311A26" d="M625.267 393.562C644.942 389.409 668.567 387.273 685.459 400.416C696.748 409.406 695.861 425.855 692.515 438.434C684.209 463.752 666.309 489.474 638.814 495.44C610.31 502.012 580.194 479.193 576.888 450.649C575.638 422.509 599.788 400.456 625.267 393.562ZM652.36 440.893C645.587 440.933 635.226 452.02 644.821 455.89C651.594 455.729 658.528 452.141 662.278 446.416C663.729 438.796 657.52 439.724 652.36 440.893Z"></path>
<path fill="#FAFCFC" d="M277.824 412.873C281.815 409.93 285.847 407.067 289.919 404.285C379.864 442.586 430.42 545.109 421.107 640.174C419.575 645.173 417.68 650.052 415.382 654.849C413.044 647.955 410.827 641.061 409.657 633.885C406.916 603.809 404.094 573.411 395.305 544.383C382.646 505.358 357.771 470.484 324.994 445.811C310.077 433.635 291.411 426.782 277.824 412.873Z"></path>
<path fill="#FFFCFD" d="M652.36 440.892C657.52 439.723 663.729 438.795 662.278 446.415C658.528 452.14 651.594 455.728 644.821 455.89C635.226 452.019 645.587 440.932 652.36 440.892Z"></path>
<path fill="#FCFCFA" d="M234.565 455.205C238.758 450.81 242.911 446.376 246.942 441.86C280.404 453.673 310.279 475.081 332.573 502.616C357.126 534.869 370.672 576.153 365.673 616.832C363.254 615.541 358.416 612.921 356.037 611.631C352.852 588.409 345.515 565.953 337.814 543.94C320.922 499.069 276.897 472.46 234.565 455.205Z"></path>
<path fill="#ACD8DD" d="M226.139 463.913C228.961 460.97 231.743 458.067 234.565 455.205C276.897 472.46 320.922 499.068 337.815 543.94C332.049 544.625 326.324 545.311 320.559 545.996C327.05 554.745 333.622 564.058 333.823 575.427C315.681 549.705 287.984 534.184 261.456 518.622C260.529 514.227 260.368 509.188 256.054 506.648C242.628 496.206 227.712 487.538 216.181 474.798C219.487 471.089 222.793 467.501 226.139 463.913Z"></path>
<path fill="#E2F3F2" d="M185.38 509.067C195.902 497.859 205.981 486.248 216.181 474.798C227.712 487.538 242.629 496.206 256.054 506.648C260.368 509.188 260.529 514.227 261.456 518.622C255.328 516.163 249.039 514.308 242.669 512.736C258.392 529.95 282.38 536.119 299.837 551.358C292.903 561.72 303.586 570.387 309.11 578.289C323.502 594.617 334.106 613.767 342.854 633.643C341 634.772 337.29 637.07 335.436 638.199C319.753 618.122 307.618 595.504 291.008 576.112C270.809 552.044 245.249 531.241 214.69 522.29C205.135 517.453 195.378 512.978 185.38 509.067Z"></path>
<path fill="#401E2E" d="M709.004 494.109C722.59 490.803 738.555 492.981 749.158 502.576C752.424 513.905 738.515 517.089 730.331 519.105C732.992 529.991 738.152 543.617 751.618 543.537C763.229 545.835 768.51 533.982 775.404 527.209C774.437 534.224 774.154 542.972 766.656 546.44C750.569 556.317 729.807 544.907 724.203 528.176C714.729 534.708 702.593 539.505 691.224 534.829C678.686 530.595 666.793 514.388 676.307 502.092C678.928 510.76 679.412 521.726 688.402 526.644C700.699 535.232 717.752 529.305 724.122 516.364C717.591 510.075 711.423 503.1 709.004 494.109Z"></path>
<path fill="#F9BB6D" d="M124.946 541.319C141.314 515.477 179.937 507.615 205.175 524.91C221.906 534.989 232.066 552.648 238.073 570.79C240.29 585.626 244.927 601.269 239.847 616.024C232.912 636.505 219.769 654.688 216.181 676.337C213.399 690.69 214.569 707.502 225.776 718.185C240.331 731.449 260.932 734.675 279.8 736.932C325.357 741.286 371.196 738.988 416.834 738.504C483.154 737.577 549.473 737.658 615.753 735.844C645.264 737.013 674.614 733.465 704.085 732.981L707.673 733.022L709.891 734.432C711.342 734.755 714.205 735.4 715.656 735.723C735.653 743.665 755.407 731.651 775.727 733.143C802.134 732.618 829.428 734.554 854.988 726.692C869.461 722.217 876.033 706.695 876.638 692.665C881.476 653.035 853.335 618.847 855.552 579.458C855.27 529.184 923.444 494.754 963.236 526.12C978.637 537.328 983.798 557.244 982.266 575.507C978.597 585.828 974.001 596.431 965.292 603.527C955.979 611.509 943.804 614.654 933.362 620.701C931.145 626.829 931.024 633.441 930.58 639.892C928.726 684.401 926.508 728.909 924.049 773.378C923.122 780.957 923.727 789.303 919.856 796.237C904.899 802.244 888.208 798.616 872.485 799.341C693.764 799.422 515.044 799.865 336.323 799.341C282.541 798.656 228.639 800.349 174.938 797.567C170.302 781.764 172.68 765.032 171.39 748.866C169.052 706.211 169.092 663.476 165.827 620.903C151.756 616.226 136.436 611.429 127.164 599.052C113.819 583.006 113.214 558.413 124.946 541.319Z"></path>
<path fill="#9DD2DD" d="M214.689 522.29C245.249 531.24 270.809 552.044 291.007 576.112C307.618 595.504 319.753 618.121 335.436 638.199C337.129 640.335 340.435 644.609 342.128 646.746C339.588 648.399 336.968 649.971 334.347 651.503C326.405 649.246 318.342 647.512 310.158 646.665C285.242 619.976 269.519 585.828 241.943 561.558C235.089 547.085 226.058 533.619 214.689 522.29Z"></path>
<path fill="#97D0D6" d="M320.559 545.996C326.325 545.31 332.049 544.625 337.815 543.94C345.515 565.952 352.852 588.408 356.037 611.63C356.199 614.049 356.562 618.928 356.723 621.387C350.877 605.22 342.007 590.464 333.823 575.426C333.622 564.057 327.05 554.744 320.559 545.996Z"></path>
<path fill="#B8E2E4" d="M309.109 578.29C303.586 570.388 292.902 561.72 299.837 551.359C323.22 570.71 341.604 596.956 350.07 626.225C352.973 634.248 346.523 640.82 342.128 646.746C340.435 644.609 337.129 640.336 335.436 638.199C337.29 637.07 340.999 634.772 342.854 633.643C334.105 613.768 323.502 594.618 309.109 578.29Z"></path>
<path fill="#E8F2F1" d="M241.943 561.558C269.519 585.829 285.243 619.976 310.158 646.665C296.854 647.431 288.75 635.78 280.566 627.314C271.696 616.912 261.698 607.357 249.603 600.826C248.112 589.013 246.176 577.241 243.072 565.751L241.943 561.558Z"></path>
<path fill="#9DCED5" d="M477.751 634.248C484.444 639.489 491.499 646.222 500.812 644.085C503.513 640.819 505.932 637.352 508.391 633.966C509.641 643.117 511.093 652.309 513.108 661.38C513.552 663.275 514.439 667.065 514.882 668.96C513.31 671.621 510.206 676.942 508.633 679.603C501.417 672.387 495.289 664.162 489.483 655.817C488.878 661.179 488.314 666.581 487.75 671.984C482.105 672.064 476.461 672.145 470.817 672.266C470.817 662.63 470.132 652.995 469.486 643.44C469.809 642.755 470.454 641.424 470.777 640.739C473.075 638.521 475.413 636.344 477.751 634.248Z"></path>
<path fill="#BA6E60" d="M239.04 638.44C250.974 640.698 263.19 641.505 275.002 644.649C289.839 650.777 302.982 662.872 320.116 661.542C333.138 662.751 343.459 654.244 352.893 646.625C360.714 654.043 368.495 661.783 377.929 667.266C394.459 677.91 416.068 674.806 431.872 687.142C429.977 688.594 426.187 691.496 424.252 692.948C437.718 693.996 450.256 689.239 461.262 681.942C472.43 685.409 483.194 691.174 487.709 702.583C486.903 703.712 485.371 705.889 484.565 707.018C487.911 712.501 491.257 718.024 494.603 723.588C460.012 724.394 425.018 723.467 391.112 731.853C348.66 733.062 305.683 734.715 263.593 727.7C247.386 724.797 228.437 717.621 223.317 700.285C218.399 678.515 227.268 656.462 239.04 638.44Z"></path>
<path fill="#B76F60" d="M837.813 661.582C847.529 656.664 853.415 647.109 861.64 640.376C868.413 662.066 874.783 686.78 865.43 708.631C860.592 720 847.408 722.701 836.442 723.991C812.979 726.33 789.394 726.894 765.849 726.007C775.888 708.712 775.041 688.392 769.155 669.847C792.095 671.863 817.05 673.516 837.813 661.582Z"></path>
<path fill="#C27465" d="M431.872 687.143C442.717 685.974 452.07 680.37 460.939 674.483C471.663 680.652 483.436 680.773 494.361 675.169C503.957 683.192 513.068 693.311 525.848 696.053C535.08 698.31 544.313 694.722 553.303 692.989C586.443 700.124 625.509 710.768 654.698 687.264C664.051 700.487 675.783 711.615 686.951 723.266C686.749 723.992 686.306 725.483 686.104 726.209C657.923 730.079 629.339 727.902 600.997 729.273C531.049 729.757 461.101 731.974 391.112 731.853C425.018 723.467 460.012 724.395 494.603 723.588C491.257 718.025 487.911 712.501 484.565 707.018C485.371 705.89 486.903 703.713 487.709 702.584C483.194 691.174 472.429 685.409 461.262 681.942C450.256 689.239 437.717 693.996 424.252 692.948C426.187 691.497 429.977 688.594 431.872 687.143Z"></path>
<path fill="#A36663" d="M219.85 805.067C233.275 804.542 246.7 804.422 260.085 804.663C258.432 813.815 258.11 823.612 253.917 832.159C246.176 841.391 228.719 841.069 221.462 831.312C219.608 822.685 220.172 813.775 219.85 805.067Z"></path>
<path fill="#9E6860" d="M834.185 804.744C848.174 804.744 862.204 804.784 876.234 804.946C875.468 814.339 875.75 824.136 872.364 833.167C863.414 839.335 850.472 838.368 841.442 832.844C833.459 825.87 835.596 814.138 834.185 804.744Z"></path>
</svg>
